<svg width="85" height="85" viewBox="0 0 85 85" fill="none" xmlns="http://www.w3.org/2000/svg">
<path d="M15.0521 1.0625H69.948C78.2709 1.0625 85 7.79161 85 16.1146V68.8855C85 77.2084 78.2709 83.9377 69.9479 83.9377H15.0521C6.72911 83.9375 0 77.2084 0 68.8854V16.1146C0 7.79161 6.72911 1.0625 15.0521 1.0625Z" fill="#390000"/>
<path d="M41.1895 50.7875H28.0145L25.3229 59.1104C25.252 59.4291 24.9688 59.6416 24.6501 59.6063H17.9917C17.602 59.6063 17.4958 59.3938 17.602 58.9688L29.0061 26.1375C29.1124 25.7834 29.2186 25.3938 29.3603 24.9688C29.5019 24.225 29.5728 23.4459 29.5728 22.6666C29.5374 22.4895 29.679 22.3125 29.8561 22.277H29.9624H39.029C39.3124 22.277 39.454 22.3832 39.4894 22.5604L52.4165 59.0395C52.5228 59.4291 52.4165 59.6061 52.0624 59.6061H44.6603C44.4124 59.6415 44.1644 59.4645 44.0936 59.2165L41.1895 50.7875ZM30.0686 43.5979H39.0645L34.5311 28.8291L30.0686 43.5979Z" fill="#FF9A00"/>
<path d="M60.1374 28.3334C58.9686 28.3687 57.8352 27.9084 56.9852 27.0937C56.1706 26.2084 55.7456 25.0396 55.7811 23.8353C55.7458 22.6312 56.2061 21.4978 57.0561 20.6832C57.9061 19.8686 59.0395 19.4436 60.2082 19.4436C61.5895 19.4436 62.652 19.8686 63.4311 20.6832C64.2102 21.5332 64.6352 22.6666 64.5999 23.8353C64.6352 25.0395 64.2102 26.2082 63.3602 27.0937C62.5458 27.9437 61.3415 28.4041 60.1374 28.3334Z" fill="#FF9A00"/>
<path d="M56.1709 59.075V31.8041C56.1709 31.45 56.3125 31.3082 56.6313 31.3082H63.6438C63.9625 31.3082 64.1041 31.4854 64.1041 31.8041V59.075C64.1041 59.4646 63.9625 59.6416 63.6438 59.6416H56.7022C56.3479 59.6416 56.1709 59.4291 56.1709 59.075Z" fill="#FF9A00"/>
</svg>
