<svg width="85" height="85" viewBox="0 0 85 85" fill="none" xmlns="http://www.w3.org/2000/svg">
<path d="M15.0521 1.0625H69.948C78.2709 1.0625 85 7.79161 85 16.1146V68.8855C85 77.2084 78.2709 83.9377 69.9479 83.9377H15.0521C6.72911 83.9375 0 77.2084 0 68.8854V16.1146C0 7.79161 6.72911 1.0625 15.0521 1.0625Z" fill="#001834"/>
<path d="M19.125 59.1813V22.7375C19.125 22.4897 19.2313 22.3479 19.4791 22.3479C20.0813 22.3479 20.6479 22.3479 21.4625 22.3125C22.3125 22.2772 23.1979 22.2772 24.1541 22.2416C25.1104 22.2061 26.1375 22.2063 27.2354 22.1707C28.3332 22.1354 29.3957 22.1354 30.4582 22.1354C33.3623 22.1354 35.7707 22.4895 37.7541 23.2332C39.525 23.8354 41.1541 24.827 42.5 26.1373C43.6334 27.2707 44.5188 28.652 45.0854 30.1749C45.6166 31.6624 45.9 33.1852 45.9 34.779C45.9 37.8249 45.1916 40.3393 43.775 42.3227C42.3584 44.3061 40.375 45.7936 38.0729 46.6436C35.6645 47.529 33.0082 47.8477 30.1041 47.8477C29.2541 47.8477 28.6875 47.8477 28.3332 47.8123C27.9791 47.777 27.4832 47.777 26.8104 47.777V59.1457C26.8457 59.3936 26.6687 59.6061 26.4207 59.6416C26.3854 59.6416 26.3498 59.6416 26.2791 59.6416H19.55C19.2666 59.6416 19.125 59.5 19.125 59.1813ZM26.8459 29.1834V41.0834C27.3418 41.1188 27.8021 41.1543 28.2271 41.1543H30.1043C32.5499 41.1543 35.3743 40.5795 37.0813 38.6398C38.5503 36.9704 38.5545 33.6597 37.3646 31.8398C35.9522 29.6795 33.1276 29.0536 30.7063 29.1127C29.7854 29.1127 28.9709 29.1127 28.2979 29.148C27.5896 29.1125 27.0938 29.1479 26.8459 29.1834Z" fill="#00A9FF"/>
<path d="M67.9999 38.9229C66.9374 38.3563 65.804 37.9666 64.5999 37.7188C63.2896 37.4354 61.979 37.2584 60.6333 37.2584C59.9249 37.223 59.1812 37.3293 58.5083 37.5063C58.0479 37.6125 57.6583 37.8604 57.4104 38.2146C57.2333 38.498 57.1271 38.8522 57.1271 39.1709C57.1271 39.4897 57.2687 39.8084 57.4812 40.0918C57.7999 40.4814 58.2249 40.8002 58.6853 41.048C59.4999 41.473 60.3499 41.8627 61.1999 42.2168C63.1124 42.8543 64.954 43.7397 66.654 44.8022C67.8228 45.5459 68.779 46.5375 69.4519 47.7418C70.0185 48.8752 70.3019 50.1146 70.2665 51.3896C70.3019 53.0543 69.8062 54.7188 68.8853 56.1C67.8937 57.5166 66.5124 58.6147 64.9187 59.2522C63.1833 59.9959 61.0583 60.3855 58.5083 60.3855C56.8792 60.3855 55.2854 60.2439 53.6917 59.9252C52.4521 59.7127 51.2126 59.323 50.0792 58.7918C49.8313 58.6502 49.6542 58.4021 49.6896 58.1189V51.9564C49.6896 51.8502 49.7249 51.7086 49.8312 51.6377C49.9374 51.5668 50.0437 51.6023 50.1499 51.673C51.5312 52.4877 52.9833 53.0543 54.5415 53.4084C55.8874 53.7625 57.304 53.9397 58.7206 53.9397C60.0665 53.9397 61.0228 53.7625 61.6603 53.4438C62.2269 53.1959 62.6165 52.5938 62.6165 51.9563C62.6165 51.4604 62.3331 51 61.7665 50.5397C61.1999 50.0793 60.0312 49.548 58.2956 48.875C56.4894 48.2375 54.8248 47.3875 53.2665 46.325C52.1687 45.5459 51.2478 44.5188 50.5749 43.3147C50.0083 42.1813 49.7249 40.9418 49.7603 39.7022C49.7603 38.1793 50.1853 36.7271 50.9644 35.4168C51.8498 34.0002 53.1603 32.8668 54.6831 32.1584C56.3478 31.3084 58.4373 30.9188 60.9519 30.9188C62.404 30.9188 63.8915 31.025 65.3435 31.2375C66.406 31.3791 67.4331 31.6625 68.3894 32.0522C68.531 32.0875 68.6728 32.2293 68.7435 32.3709C68.7789 32.5125 68.8144 32.6543 68.8144 32.7959V38.5688C68.8144 38.7104 68.7435 38.8522 68.6373 38.9229C68.3187 38.9938 68.1415 38.9938 67.9999 38.9229Z" fill="#00A9FF"/>
</svg>
