<svg width="85" height="85" viewBox="0 0 85 85" fill="none" xmlns="http://www.w3.org/2000/svg">
<path d="M15.052 1.06256H69.9478C78.2609 1.06256 85 7.80167 85 16.1146V68.8854C85 77.1985 78.2609 83.9376 69.9478 83.9376H15.052C6.73911 83.9374 0 77.1985 0 68.8854V16.1146C0 7.80151 6.73911 1.06256 15.052 1.06256Z" fill="#00005B"/>
<path d="M34.1471 50.6458H20.9751L18.2953 58.9868C18.2201 59.3 17.9328 59.5154 17.6109 59.5H10.9395C10.5591 59.5 10.426 59.2908 10.5404 58.8728L21.9446 26.1644C22.0586 25.8223 22.1726 25.4879 22.2866 25.0504C22.436 24.2897 22.5124 23.5164 22.5147 22.7412C22.4873 22.5481 22.6214 22.3694 22.8144 22.342C22.8475 22.3373 22.8808 22.3373 22.9139 22.342H31.9803C32.2457 22.342 32.3979 22.4371 32.4366 22.6271L45.3802 58.9297C45.4942 59.3101 45.3802 59.5003 45.0381 59.5H37.6253C37.3619 59.5292 37.1177 59.3584 37.0552 59.1008L34.1471 50.6458ZM27.5325 28.8444H27.4754L23.0279 43.6128H32.0372L27.5325 28.8444Z" fill="#9999FF"/>
<path d="M66.3642 47.3993H55.1311C55.2687 48.5107 55.6378 49.5811 56.2146 50.5409C56.8523 51.4915 57.754 52.2347 58.809 52.6792C60.2387 53.2978 61.7849 53.6009 63.3423 53.5677C64.5778 53.5439 65.8088 53.4088 67.0201 53.1639C68.1034 53.0176 69.1652 52.7408 70.1823 52.3396C70.372 52.1882 70.4674 52.2827 70.4674 52.6248V58.0417C70.4769 58.1893 70.4474 58.3368 70.3818 58.4694C70.3166 58.5732 70.2288 58.6608 70.1252 58.726C68.9972 59.2256 67.81 59.5793 66.5926 59.7785C64.9386 60.0892 63.2574 60.2324 61.5748 60.2062C58.8752 60.2062 56.6133 59.7881 54.7892 58.9518C53.0649 58.1921 51.5419 57.0401 50.3417 55.5876C49.2206 54.219 48.3867 52.6384 47.8898 50.9404C47.3976 49.2644 47.148 47.5267 47.1485 45.7801C47.1432 43.8729 47.4416 41.9769 48.0323 40.1636C48.6013 38.3947 49.5011 36.75 50.6838 35.3168C53.2903 32.1586 56.8775 30.8424 60.8905 30.8424C64.3486 30.8424 67.8958 31.9877 70.1279 34.7465C71.062 35.952 71.7762 37.3128 72.2376 38.7665C72.6869 40.1673 72.9176 41.6289 72.9219 43.1001C72.9219 43.9366 72.8933 44.6969 72.8362 45.3809C72.7793 46.0651 72.7318 46.5593 72.6938 46.8634C72.6631 47.1237 72.4425 47.3197 72.1806 47.3197C71.9526 47.3197 71.5629 47.3482 71.0118 47.4052C70.4603 47.4621 69.7761 47.5001 68.9592 47.5192C68.1406 47.5384 67.2766 47.3993 66.3642 47.3993ZM55.1311 42.2048H62.6009C63.5132 42.2048 64.1879 42.1953 64.6251 42.1763C64.9175 42.147 65.2 42.0534 65.4521 41.9022V41.56C65.4407 41.114 65.3638 40.6722 65.2241 40.2486C64.5917 38.2491 62.7011 36.9186 60.6055 36.9985C58.6447 36.88 56.7992 37.9313 55.9012 39.6783C55.5102 40.4737 55.2503 41.3268 55.1311 42.2048Z" fill="#9999FF"/>
</svg>
