<svg width="85" height="85" viewBox="0 0 85 85" fill="none" xmlns="http://www.w3.org/2000/svg">
<path d="M15.0521 1.0625H69.9479C78.2709 1.0625 85 7.79161 85 16.1146V68.8855C85 77.2085 78.2709 83.9376 69.9479 83.9376H15.0521C6.72911 83.9376 0 77.2083 0 68.8855V16.1146C0 7.79161 6.72911 1.0625 15.0521 1.0625Z" fill="#00005B"/>
<path d="M31.5208 22.1355C34.4249 22.1355 36.8332 22.4896 38.8165 23.2333C42.1471 24.4822 44.8861 26.7841 46.1479 30.1751C46.6792 31.6625 46.9626 33.1855 46.9626 34.7792C46.9626 40.0011 44.2074 44.7711 39.1355 46.6439C36.7271 47.5292 34.0709 47.848 31.1667 47.848C30.3168 47.848 29.75 47.848 29.3959 47.8126C29.0418 47.7773 28.5459 47.7773 27.8731 47.7773V59.1461C27.9084 59.3939 27.7315 59.6064 27.4834 59.6419C27.4481 59.6419 27.4126 59.6419 27.3418 59.6419H20.6127C20.3294 59.6419 20.1877 59.5003 20.1877 59.1816V22.7374C20.1877 22.4896 20.294 22.3478 20.5418 22.3478C21.144 22.3478 21.7106 22.3478 22.5252 22.3124L31.5208 22.1355ZM27.9083 29.1833V41.0833C28.4041 41.1187 28.8645 41.1542 29.2895 41.1542H31.1666C32.5478 41.1542 33.929 40.9417 35.2393 40.5167C37.7757 39.6942 39.2415 37.6306 39.2415 34.9919C39.2415 32.7818 38.0733 30.6271 35.9479 29.821C34.6375 29.2897 33.2208 29.0772 31.7687 29.1126C30.8478 29.1126 30.0332 29.1126 29.3604 29.148C28.652 29.1124 28.1561 29.148 27.9083 29.1833Z" fill="#9999FF"/>
<path d="M51.9208 31.2375H58.1186C58.4727 31.2375 58.7561 31.4854 58.8624 31.8041C58.9686 32.0875 59.0395 32.3707 59.0749 32.6895C59.1457 33.0436 59.2165 33.4332 59.252 33.7873C59.2874 34.1769 59.3229 34.6019 59.3229 35.0623C60.3854 33.8227 61.6603 32.7955 63.1124 32.0165C64.7417 31.0956 66.6187 30.6352 68.4958 30.6352C68.7437 30.5999 68.9562 30.7768 68.9917 31.0249V31.1665V38.0727C68.9917 38.3561 68.8146 38.4623 68.4251 38.4623C67.1502 38.427 65.8397 38.5332 64.6001 38.8164C63.5729 39.0289 62.5814 39.3477 61.625 39.7727C60.9521 40.0914 60.3146 40.5164 59.8188 41.083V59.1455C59.8188 59.4996 59.6772 59.6414 59.3584 59.6414H52.3813C52.0979 59.6768 51.85 59.4998 51.8147 59.2164C51.8147 59.1811 51.8147 59.1102 51.8147 59.0748V39.4539C51.8147 38.604 51.8147 37.7184 51.7793 36.7977C51.744 35.8769 51.744 34.956 51.7084 34.0353C51.7084 33.2207 51.6375 32.4416 51.5668 31.627C51.5315 31.4499 51.6377 31.2729 51.8147 31.2374C51.8145 31.202 51.8852 31.202 51.9208 31.2375Z" fill="#9999FF"/>
</svg>
