<svg width="85" height="85" viewBox="0 0 85 85" fill="none" xmlns="http://www.w3.org/2000/svg">
<path d="M15.0521 1.0625H69.948C78.2709 1.0625 85 7.79161 85 16.1146V68.8855C85 77.2084 78.2709 83.9377 69.9479 83.9377H15.0521C6.72911 83.9375 0 77.2084 0 68.8854V16.1146C0 7.79161 6.72911 1.0625 15.0521 1.0625Z" fill="#001834"/>
<path d="M44.6251 59.6416H22.171C21.7813 59.6416 21.6044 59.4291 21.6044 59.0041V22.8084C21.569 22.5605 21.746 22.348 21.994 22.3125H22.1356H29.0772C29.2544 22.2771 29.4669 22.4187 29.4669 22.5959V22.7021V52.4521H45.8294C46.1835 52.4521 46.2897 52.6293 46.219 52.948L45.1919 59.1105C45.1919 59.2877 45.0856 59.4293 44.9794 59.5355C44.8729 59.6062 44.7667 59.6416 44.6251 59.6416Z" fill="#00A9FF"/>
<path d="M50.2917 31.3084H56.4895C56.8436 31.3084 57.127 31.5562 57.2333 31.875C57.3749 32.1228 57.4811 32.4062 57.5167 32.6896C57.5876 33.0437 57.6583 33.4334 57.6938 33.7875C57.7292 34.1771 57.7647 34.6021 57.7647 35.0625C58.8272 33.8228 60.1022 32.7959 61.5543 32.0166C63.1834 31.1312 64.9897 30.7062 66.8315 30.7416C67.0793 30.7062 67.2918 30.8832 67.3274 31.1312V31.2728V38.1791C67.3274 38.4625 67.1502 38.5687 66.7607 38.5687C64.4586 38.4271 62.1566 38.8521 60.067 39.7728C59.3586 40.0916 58.6857 40.5166 58.1545 41.0832V59.1457C58.1545 59.4998 58.0129 59.6416 57.6941 59.6416H50.7879C50.5045 59.677 50.2566 59.5 50.2213 59.2166C50.2213 59.1812 50.2213 59.1103 50.2213 59.075V39.4541C50.2213 38.6041 50.2213 37.7187 50.1859 36.7978C50.1505 35.877 50.1505 34.9562 50.115 34.0353C50.0797 33.2562 50.0088 32.477 49.9025 31.6978C49.8672 31.5207 49.9734 31.3437 50.1504 31.3082C50.1854 31.2728 50.2209 31.2728 50.2917 31.3084Z" fill="#00A9FF"/>
</svg>
