<svg width="85" height="85" viewBox="0 0 85 85" fill="none" xmlns="http://www.w3.org/2000/svg">
<path d="M15.0521 1.0625H69.948C78.2709 1.0625 85 7.79161 85 16.1146V68.8855C85 77.2084 78.2709 83.9377 69.9479 83.9377H15.0521C6.72911 83.9375 0 77.2084 0 68.8854V16.1146C0 7.79161 6.72911 1.0625 15.0521 1.0625Z" fill="#54001A"/>
<path d="M30.8835 22.7375V59.075C30.8835 59.4646 30.7063 59.6416 30.3876 59.6416H23.446C23.1272 59.6416 22.9856 59.4645 22.9856 59.075V22.7375C22.9856 22.4187 23.1627 22.2771 23.4815 22.2771H30.3877C30.6002 22.2418 30.8127 22.3834 30.8481 22.6312C30.8835 22.6666 30.8835 22.7021 30.8835 22.7375Z" fill="#FF3068"/>
<path d="M51.2835 60.2084C48.6626 60.2437 46.0419 59.7125 43.6689 58.6146C41.4376 57.5875 39.596 55.8875 38.321 53.798C37.0107 51.6377 36.3732 48.9459 36.3732 45.723C36.3378 43.1021 37.0107 40.5168 38.321 38.2502C39.6669 35.948 41.6148 34.0355 43.9523 32.7605C46.4314 31.3793 49.4064 30.7064 52.9126 30.7064C53.0898 30.7064 53.3376 30.7064 53.6564 30.7418C53.9751 30.7771 54.3292 30.7771 54.7542 30.8127V19.6211C54.7542 19.3732 54.8605 19.2314 55.1083 19.2314H62.298C62.4751 19.1961 62.6167 19.3377 62.6521 19.4793V19.5502V53.2668C62.6521 53.9043 62.6875 54.6127 62.723 55.3918C62.7939 56.1355 62.8292 56.8439 62.8646 57.4459C62.8646 57.6937 62.7583 57.9062 62.5105 58.0125C60.6689 58.7916 58.7208 59.3584 56.7376 59.7125C54.9667 60.0312 53.1251 60.2084 51.2835 60.2084ZM54.7542 53.125V37.5416C54.4355 37.4707 54.1167 37.4 53.798 37.3645C53.4083 37.3291 53.0189 37.2936 52.6292 37.2936C51.248 37.2936 49.8667 37.577 48.6271 38.2145C47.423 38.8166 46.3958 39.702 45.6167 40.8354C44.8376 41.9687 44.448 43.4916 44.448 45.3332C44.4126 46.5729 44.6251 47.8123 45.0501 48.9811C45.4042 49.9373 45.9355 50.7873 46.6439 51.4957C47.3167 52.1332 48.1314 52.6291 49.0523 52.9123C50.0085 53.2311 51.0001 53.3727 51.9919 53.3727C52.5232 53.3727 53.019 53.3373 53.4794 53.3018C53.9398 53.3375 54.3648 53.2666 54.7542 53.125Z" fill="#FF3068"/>
</svg>
