<svg width="85" height="85" viewBox="0 0 85 85" fill="none" xmlns="http://www.w3.org/2000/svg">
<path d="M15.0521 1.0625H69.9479C78.2609 1.0625 85 7.80155 85 16.1146V68.8855C85 77.1985 78.2609 83.9376 69.9479 83.9376H15.0521C6.73905 83.9376 0 77.1985 0 68.8855V16.1146C0 7.80155 6.73905 1.0625 15.0521 1.0625Z" fill="#470137"/>
<path d="M44.6841 22.8574L34.0782 40.3628L45.4254 58.9515C45.4981 59.0815 45.5185 59.2346 45.4825 59.3792C45.4441 59.5128 45.3115 59.4286 45.0834 59.4662H36.9865C36.4161 59.4662 36.017 59.4461 35.7889 59.0656C35.0281 57.5831 34.2678 56.1101 33.5081 54.6465C32.7473 53.1835 31.9395 51.6914 31.0848 50.1704C30.2295 48.6505 29.3837 47.1109 28.5474 45.5516H28.4902C27.7294 47.0724 26.9405 48.5931 26.1238 50.1133C25.306 51.6341 24.4982 53.1451 23.7005 54.6464C22.9021 56.1484 22.0849 57.6405 21.2487 59.1225C21.0963 59.4647 20.8298 59.4999 20.4502 59.4999H12.6383C12.4868 59.4999 12.4013 59.5598 12.3817 59.4076C12.3603 59.2684 12.3907 59.1265 12.4674 59.0085L23.4722 40.9328L12.7524 22.8003C12.6383 22.6489 12.6194 22.5254 12.6953 22.4297C12.7806 22.3311 12.9074 22.2783 13.0376 22.2871H21.0773C21.2527 22.2775 21.428 22.3067 21.5907 22.3728C21.727 22.45 21.844 22.5572 21.9328 22.6864C22.6171 24.2072 23.3774 25.7277 24.2136 27.2481C25.0495 28.7689 25.8952 30.2705 26.7511 31.7528C27.6064 33.2352 28.3953 34.7368 29.1176 36.2575H29.1747C29.9345 34.6991 30.7043 33.1786 31.4841 31.6958C32.2628 30.2133 33.061 28.7212 33.8788 27.2197C34.6959 25.7184 35.4848 24.2263 36.2453 22.7435C36.2889 22.6027 36.3675 22.4754 36.4734 22.373C36.6142 22.3016 36.7724 22.2719 36.9296 22.2873H44.3993C44.5744 22.2441 44.7515 22.3511 44.7949 22.5262C44.8247 22.6485 44.7817 22.7775 44.6841 22.8574Z" fill="#FF61F6"/>
<path d="M61.0483 60.2061C58.4238 60.2459 55.8232 59.7006 53.436 58.6094C51.2121 57.5801 49.3529 55.8999 48.1047 53.7911C46.8118 51.6439 46.1657 48.9543 46.166 45.7226C46.1446 43.1056 46.8133 40.5291 48.1047 38.2528C49.435 35.9343 51.3914 34.0371 53.7497 32.7787C56.2203 31.4103 59.2044 30.726 62.7021 30.726C62.8918 30.726 63.1388 30.7355 63.4433 30.7545C63.7471 30.7741 64.1083 30.8025 64.5267 30.84V19.6069C64.5267 19.3414 64.6409 19.2078 64.869 19.2078H72.0535C72.2188 19.1842 72.372 19.2991 72.3956 19.4645C72.3996 19.4929 72.3996 19.5216 72.3956 19.55V53.2494C72.3956 53.8962 72.4242 54.5995 72.4811 55.3592C72.5382 56.12 72.5857 56.8043 72.6237 57.4119C72.638 57.6543 72.5022 57.8808 72.2814 57.9822C70.4279 58.7551 68.4973 59.3287 66.5225 59.6928C64.7166 60.0261 62.8847 60.1978 61.0483 60.2061ZM64.5265 53.1355V37.5688C64.2184 37.4853 63.9036 37.428 63.5857 37.3976C63.1973 37.3586 62.8071 37.3395 62.4167 37.3407C61.033 37.3269 59.6656 37.6395 58.4253 38.2529C57.2172 38.8534 56.1858 39.7572 55.4318 40.8759C54.6522 42.0162 54.2626 43.5178 54.2627 45.3806C54.235 46.6235 54.438 47.861 54.8614 49.0299C55.206 49.9718 55.7507 50.8278 56.458 51.5388C57.1352 52.1931 57.955 52.681 58.8528 52.9643C59.8012 53.2715 60.7924 53.4254 61.7893 53.4204C62.3212 53.4204 62.8154 53.4013 63.2718 53.3634C63.6971 53.3316 64.1175 53.255 64.5265 53.1355Z" fill="#FF61F6"/>
</svg>
