<svg width="85" height="85" viewBox="0 0 85 85" fill="none" xmlns="http://www.w3.org/2000/svg">
<path d="M42.5994 42.5C42.5994 34.676 48.942 28.3334 56.766 28.3334C64.59 28.3334 70.9326 34.6762 70.9326 42.5C70.9326 50.3241 64.5898 56.6666 56.766 56.6666C48.9418 56.6666 42.5994 50.324 42.5994 42.5Z" fill="#00BCFF"/>
<path d="M14.266 70.8334C14.266 63.0094 20.6086 56.6668 28.4326 56.6668L35.9822 52.6809L42.5992 56.6668V70.8334C42.5992 78.6575 36.2566 85 28.4326 85C20.6086 85 14.266 78.6574 14.266 70.8334Z" fill="#00CF7F"/>
<path d="M42.5994 0L34.8906 13.3925L42.5994 28.3332H56.5673C64.3914 28.3332 70.7339 21.9906 70.7339 14.1666C70.7339 6.34263 64.3913 0 56.5673 0H42.5994Z" fill="#FF7361"/>
<path d="M14.0671 14.1666C14.0671 21.9906 20.4098 28.3332 28.2338 28.3332L35.7488 31.2358L42.5991 28.3332V0H28.2336C20.4098 0 14.0671 6.34263 14.0671 14.1666Z" fill="#FF4D12"/>
<path d="M14.266 42.5C14.266 50.3241 20.6086 56.6666 28.4326 56.6666H42.5992V28.3332H28.4326C20.6086 28.3332 14.266 34.676 14.266 42.5Z" fill="#B659FF"/>
</svg>
