<svg width="85" height="85" viewBox="0 0 85 85" fill="none" xmlns="http://www.w3.org/2000/svg">
<mask id="mask0_48_207" style="mask-type:luminance" maskUnits="userSpaceOnUse" x="3" y="3" width="79" height="79">
<path d="M81.357 3.64288H3.64282V81.3571H81.357V3.64288Z" fill="white"/>
</mask>
<g mask="url(#mask0_48_207)">
<mask id="mask1_48_207" style="mask-type:luminance" maskUnits="userSpaceOnUse" x="3" y="3" width="79" height="79">
<path d="M81.357 3.64288H3.64282V81.3571H81.357V3.64288Z" fill="white"/>
</mask>
<g mask="url(#mask1_48_207)">
<mask id="mask2_48_207" style="mask-type:alpha" maskUnits="userSpaceOnUse" x="3" y="3" width="79" height="79">
<path d="M17.8901 69.3759L4.93848 59.6616C4.53467 59.3617 4.20697 58.9711 3.98191 58.521C3.75685 58.0709 3.64071 57.5745 3.64285 57.0716V27.9286C3.64071 27.4255 3.75685 26.929 3.98191 26.4791C4.20697 26.0292 4.53467 25.6385 4.93848 25.3385L17.8901 15.6242C17.5421 15.9509 17.2792 16.3576 17.1241 16.809C16.969 17.2604 16.9264 17.7428 17 18.2143V66.7858C16.9264 67.2575 16.969 67.7397 17.1241 68.1911C17.2792 68.6426 17.5421 69.0491 17.8901 69.3759Z" fill="white"/>
<path d="M79.9158 17.13C79.382 16.7794 78.7571 16.5936 78.1185 16.5957C77.7049 16.5924 77.2944 16.6707 76.9113 16.8261C76.5277 16.9816 76.1789 17.2111 75.8842 17.5015L75.6583 17.7286L49.8183 42.5L35.5215 56.2132L22.2942 68.8901L22.0672 69.1173C21.7729 69.408 21.424 69.6379 21.0406 69.7938C20.6571 69.9493 20.2467 70.0277 19.8329 70.0241C19.1324 70.0228 18.451 69.7956 17.8901 69.3759L4.93848 59.6616C5.5965 60.1558 6.41814 60.3808 7.23616 60.2905C8.05419 60.2003 8.80703 59.8017 9.34148 59.1759L23.7186 42.4842L35.5215 28.7871L56.1973 4.77581C56.4972 4.42022 56.8715 4.13458 57.2939 3.93888C57.7163 3.74317 58.176 3.64216 58.6416 3.6429C59.2802 3.64084 59.9051 3.82665 60.4385 4.17719L79.9158 17.13Z" fill="white"/>
<path d="M79.9158 67.8701L60.4873 80.8227C59.8263 81.2543 59.0318 81.4331 58.2496 81.3261C57.4679 81.2191 56.7504 80.8332 56.2299 80.24L35.5215 56.2132L23.7186 42.4842L9.34148 25.8072C8.80228 25.1877 8.04873 24.7951 7.23202 24.7081C6.41536 24.6212 5.59602 24.8464 4.93848 25.3386L17.8901 15.6242C18.451 15.2046 19.1324 14.9772 19.8329 14.9758C20.2467 14.9723 20.6571 15.0506 21.0406 15.2063C21.424 15.362 21.7729 15.5919 22.0672 15.8829L22.2942 16.1099L35.5215 28.7871L49.8183 42.5L75.6583 67.2716L75.8842 67.4984C76.1789 67.789 76.5277 68.0185 76.9113 68.174C77.2944 68.3294 77.7049 68.4078 78.1185 68.4043C78.7571 68.4065 79.382 68.2206 79.9158 67.8701Z" fill="white"/>
<path d="M81.3573 19.833V65.1673C81.3577 65.7015 81.2265 66.2278 80.975 66.699C80.7235 67.1707 80.3597 67.5728 79.9158 67.8701L60.4874 80.8227C60.9313 80.5254 61.2951 80.1229 61.5466 79.6512C61.7976 79.1795 61.9288 78.6532 61.9284 78.1185V6.88139C61.9214 6.34294 61.7817 5.81457 61.5219 5.34293C61.262 4.87129 60.8899 4.47091 60.4385 4.17719L79.9158 17.13C80.3584 17.4284 80.7218 17.8309 80.9728 18.3021C81.2243 18.7733 81.356 19.2989 81.3573 19.833Z" fill="white"/>
</mask>
<g mask="url(#mask2_48_207)">
<path d="M17.8901 69.3759L4.93848 59.6616C4.53467 59.3617 4.20697 58.9706 3.98191 58.521C3.75685 58.0709 3.64071 57.5745 3.64285 57.0716V27.9286C3.64071 27.4255 3.75685 26.929 3.98191 26.4791C4.20697 26.0292 4.53467 25.6385 4.93848 25.3385L17.8901 15.6242C17.5421 15.9509 17.2792 16.3576 17.1241 16.8089C16.969 17.2603 16.9264 17.7427 17 18.2143V66.7858C16.9264 67.2575 16.969 67.7397 17.1241 68.1911C17.2792 68.6426 17.5421 69.0491 17.8901 69.3759Z" fill="#5E438F"/>
<g filter="url(#filter0_dd_48_207)">
<path d="M79.9153 17.13C79.382 16.7794 78.757 16.5936 78.1184 16.5957C77.7049 16.5924 77.2944 16.6707 76.9108 16.8261C76.5277 16.9816 76.1788 17.2111 75.8842 17.5015L75.6583 17.7286L61.8953 30.9243L49.8183 42.5L35.5212 56.2132L22.294 68.8901L22.067 69.1173C21.7727 69.408 21.4238 69.6379 21.0404 69.7938C20.6569 69.9493 20.2465 70.0277 19.8327 70.0241C19.1321 70.0228 18.4508 69.7956 17.8898 69.3759L4.93823 59.6616C5.59621 60.1558 6.41789 60.3808 7.23592 60.2905C8.05394 60.2003 8.80679 59.8017 9.34123 59.1759L16.5954 50.7573L23.7184 42.4843L35.5212 28.7871L56.1968 4.77581C56.4972 4.42022 56.8715 4.13458 57.2939 3.93888C57.7158 3.74317 58.176 3.64216 58.6411 3.6429C59.2797 3.64084 59.9047 3.82665 60.4384 4.17719L79.9153 17.13Z" fill="url(#paint0_linear_48_207)"/>
</g>
<g filter="url(#filter1_dd_48_207)">
<path d="M79.9153 67.8701L60.4869 80.8231C59.8263 81.2547 59.0318 81.4331 58.2496 81.3261C57.4674 81.219 56.7504 80.8337 56.2298 80.24L35.5212 56.2132L23.7184 42.4843L16.5954 34.2272L9.34123 25.8073C8.80203 25.1878 8.04844 24.7952 7.23178 24.7082C6.41512 24.6213 5.59577 24.8465 4.93823 25.3386L17.8898 15.6243C18.4508 15.2047 19.1321 14.9773 19.8327 14.9759C20.2465 14.9724 20.6569 15.0507 21.0404 15.2064C21.4238 15.3621 21.7727 15.592 22.067 15.883L22.294 16.11L35.5212 28.7872L49.8183 42.5001L61.9125 54.093L75.6583 67.2716L75.8842 67.4988C76.1788 67.789 76.5277 68.0185 76.9108 68.174C77.2944 68.3294 77.7049 68.4078 78.1184 68.4043C78.757 68.4065 79.382 68.2206 79.9153 67.8701Z" fill="url(#paint1_linear_48_207)"/>
</g>
<g filter="url(#filter2_dd_48_207)">
<path d="M81.3573 19.8328V65.1668C81.3577 65.7015 81.2265 66.2273 80.975 66.699C80.7235 67.1703 80.3597 67.5728 79.9158 67.8701L60.4869 80.8227C60.9313 80.5254 61.2951 80.1229 61.5461 79.6512C61.7976 79.1795 61.9288 78.6532 61.9284 78.1185V6.88122C61.9214 6.34281 61.7817 5.8144 61.5219 5.34276C61.262 4.87112 60.8899 4.47074 60.4385 4.17702L79.9158 17.1298C80.3584 17.4283 80.7213 17.8307 80.9728 18.302C81.2238 18.7732 81.356 19.2988 81.3573 19.8328Z" fill="url(#paint2_linear_48_207)"/>
</g>
</g>
</g>
</g>
<defs>
<filter id="filter0_dd_48_207" x="-0.242728" y="-0.242837" width="85.339" height="76.7433" filterUnits="userSpaceOnUse" color-interpolation-filters="sRGB">
<feFlood flood-opacity="0" result="BackgroundImageFix"/>
<feColorMatrix in="SourceAlpha" type="matrix" values="0 0 0 0 0 0 0 0 0 0 0 0 0 0 0 0 0 0 127 0" result="hardAlpha"/>
<feOffset dy="0.246095"/>
<feGaussianBlur stdDeviation="0.246095"/>
<feColorMatrix type="matrix" values="0 0 0 0 0 0 0 0 0 0 0 0 0 0 0 0 0 0 0.24 0"/>
<feBlend mode="normal" in2="BackgroundImageFix" result="effect1_dropShadow_48_207"/>
<feColorMatrix in="SourceAlpha" type="matrix" values="0 0 0 0 0 0 0 0 0 0 0 0 0 0 0 0 0 0 127 0" result="hardAlpha"/>
<feOffset dy="1.29524"/>
<feGaussianBlur stdDeviation="2.59048"/>
<feColorMatrix type="matrix" values="0 0 0 0 0 0 0 0 0 0 0 0 0 0 0 0 0 0 0.22 0"/>
<feBlend mode="normal" in2="effect1_dropShadow_48_207" result="effect2_dropShadow_48_207"/>
<feBlend mode="normal" in="SourceGraphic" in2="effect2_dropShadow_48_207" result="shape"/>
</filter>
<filter id="filter1_dd_48_207" x="-0.242728" y="11.0901" width="85.339" height="76.7425" filterUnits="userSpaceOnUse" color-interpolation-filters="sRGB">
<feFlood flood-opacity="0" result="BackgroundImageFix"/>
<feColorMatrix in="SourceAlpha" type="matrix" values="0 0 0 0 0 0 0 0 0 0 0 0 0 0 0 0 0 0 127 0" result="hardAlpha"/>
<feOffset dy="0.246095"/>
<feGaussianBlur stdDeviation="0.246095"/>
<feColorMatrix type="matrix" values="0 0 0 0 0 0 0 0 0 0 0 0 0 0 0 0 0 0 0.24 0"/>
<feBlend mode="normal" in2="BackgroundImageFix" result="effect1_dropShadow_48_207"/>
<feColorMatrix in="SourceAlpha" type="matrix" values="0 0 0 0 0 0 0 0 0 0 0 0 0 0 0 0 0 0 127 0" result="hardAlpha"/>
<feOffset dy="1.29524"/>
<feGaussianBlur stdDeviation="2.59048"/>
<feColorMatrix type="matrix" values="0 0 0 0 0 0 0 0 0 0 0 0 0 0 0 0 0 0 0.22 0"/>
<feBlend mode="normal" in2="effect1_dropShadow_48_207" result="effect2_dropShadow_48_207"/>
<feBlend mode="normal" in="SourceGraphic" in2="effect2_dropShadow_48_207" result="shape"/>
</filter>
<filter id="filter2_dd_48_207" x="44.8956" y="-11.3658" width="52.0044" height="107.731" filterUnits="userSpaceOnUse" color-interpolation-filters="sRGB">
<feFlood flood-opacity="0" result="BackgroundImageFix"/>
<feColorMatrix in="SourceAlpha" type="matrix" values="0 0 0 0 0 0 0 0 0 0 0 0 0 0 0 0 0 0 127 0" result="hardAlpha"/>
<feOffset/>
<feGaussianBlur stdDeviation="0.129524"/>
<feColorMatrix type="matrix" values="0 0 0 0 0 0 0 0 0 0 0 0 0 0 0 0 0 0 0.24 0"/>
<feBlend mode="normal" in2="BackgroundImageFix" result="effect1_dropShadow_48_207"/>
<feColorMatrix in="SourceAlpha" type="matrix" values="0 0 0 0 0 0 0 0 0 0 0 0 0 0 0 0 0 0 127 0" result="hardAlpha"/>
<feOffset/>
<feGaussianBlur stdDeviation="7.77143"/>
<feColorMatrix type="matrix" values="0 0 0 0 0 0 0 0 0 0 0 0 0 0 0 0 0 0 0.3 0"/>
<feBlend mode="normal" in2="effect1_dropShadow_48_207" result="effect2_dropShadow_48_207"/>
<feBlend mode="normal" in="SourceGraphic" in2="effect2_dropShadow_48_207" result="shape"/>
</filter>
<linearGradient id="paint0_linear_48_207" x1="66.7852" y1="3.64289" x2="9.07865" y2="61.7232" gradientUnits="userSpaceOnUse">
<stop stop-color="#7252AA"/>
<stop offset="1" stop-color="#7252AA"/>
</linearGradient>
<linearGradient id="paint1_linear_48_207" x1="10.9286" y1="17.8091" x2="65.1663" y2="78.5228" gradientUnits="userSpaceOnUse">
<stop stop-color="#AE7FE2"/>
<stop offset="1" stop-color="#9A70D4"/>
</linearGradient>
<linearGradient id="paint2_linear_48_207" x1="70.6675" y1="2.61421" x2="70.6675" y2="80.7575" gradientUnits="userSpaceOnUse">
<stop stop-color="#D59DFF"/>
<stop offset="1" stop-color="#C18EF1"/>
</linearGradient>
</defs>
</svg>
