<?xml version="1.0" encoding="UTF-8"?>
<svg xmlns="http://www.w3.org/2000/svg" xmlns:xlink="http://www.w3.org/1999/xlink" viewBox="0 0 354.68 150.7">
  <defs>
    <style>
      .cls-1 {
        fill: none;
      }

      .cls-2 {
        mix-blend-mode: color-burn;
      }

      .cls-3 {
        fill: #38a01c;
      }

      .cls-4 {
        fill: url(#linear-gradient-5);
      }

      .cls-5 {
        fill: url(#linear-gradient-6);
      }

      .cls-6 {
        fill: url(#linear-gradient-9);
      }

      .cls-7 {
        fill: url(#linear-gradient-4);
      }

      .cls-8 {
        fill: url(#linear-gradient-3);
      }

      .cls-9 {
        fill: url(#linear-gradient-2);
      }

      .cls-10 {
        fill: #efefef;
      }

      .cls-11 {
        fill: url(#linear-gradient);
      }

      .cls-12 {
        fill: #487a3c;
      }

      .cls-13 {
        fill: #4c0f0f;
      }

      .cls-14 {
        fill: #e8820a;
      }

      .cls-15 {
        isolation: isolate;
      }

      .cls-16 {
        fill: #ffe001;
      }

      .cls-17 {
        fill: #2e010b;
      }

      .cls-18 {
        fill: #b04710;
      }

      .cls-19 {
        fill: #710110;
      }

      .cls-20 {
        clip-path: url(#clippath-1);
      }

      .cls-21 {
        fill: url(#linear-gradient-7);
      }

      .cls-21, .cls-22, .cls-23 {
        mix-blend-mode: screen;
      }

      .cls-22 {
        fill: url(#linear-gradient-8);
      }

      .cls-24 {
        fill: #fff;
      }

      .cls-25 {
        fill: #360f05;
      }

      .cls-26 {
        fill: #e8a80a;
      }

      .cls-27 {
        fill: url(#linear-gradient-10);
      }

      .cls-28 {
        fill: url(#linear-gradient-11);
      }

      .cls-29 {
        fill: url(#linear-gradient-12);
      }

      .cls-30 {
        fill: url(#linear-gradient-13);
      }

      .cls-31 {
        fill: url(#linear-gradient-19);
      }

      .cls-32 {
        fill: url(#linear-gradient-14);
      }

      .cls-33 {
        fill: url(#linear-gradient-21);
      }

      .cls-34 {
        fill: url(#linear-gradient-20);
      }

      .cls-35 {
        fill: url(#linear-gradient-22);
      }

      .cls-36 {
        fill: url(#linear-gradient-23);
      }

      .cls-37 {
        fill: url(#linear-gradient-28);
      }

      .cls-38 {
        fill: url(#linear-gradient-25);
      }

      .cls-39 {
        fill: url(#linear-gradient-32);
      }

      .cls-40 {
        fill: url(#linear-gradient-31);
      }

      .cls-41 {
        fill: url(#linear-gradient-33);
      }

      .cls-42 {
        fill: url(#linear-gradient-30);
      }

      .cls-43 {
        fill: url(#linear-gradient-15);
      }

      .cls-44 {
        fill: url(#linear-gradient-16);
      }

      .cls-45 {
        fill: url(#linear-gradient-17);
      }

      .cls-46 {
        fill: url(#linear-gradient-18);
      }

      .cls-47 {
        fill: url(#linear-gradient-35);
      }

      .cls-48 {
        fill: url(#linear-gradient-34);
      }

      .cls-49 {
        fill: url(#linear-gradient-27);
      }

      .cls-50 {
        fill: url(#linear-gradient-24);
      }

      .cls-51 {
        fill: url(#linear-gradient-26);
      }

      .cls-52 {
        fill: url(#linear-gradient-29);
      }

      .cls-53 {
        fill: #ffff31;
      }

      .cls-54 {
        fill: #ffc5bb;
      }

      .cls-55 {
        fill: #4c322d;
      }

      .cls-56 {
        fill: #331c19;
      }

      .cls-57 {
        fill: #dfaa5a;
      }

      .cls-58 {
        clip-path: url(#clippath);
      }
    </style>
    <linearGradient id="linear-gradient" x1="87.32" y1="9.3" x2="87.32" y2="143.14" gradientUnits="userSpaceOnUse">
      <stop offset="0" stop-color="#9edbc4"/>
      <stop offset=".56" stop-color="#9cbde8"/>
      <stop offset=".74" stop-color="#cfb8e8"/>
      <stop offset="1" stop-color="#ffb875"/>
    </linearGradient>
    <linearGradient id="linear-gradient-2" x1="267.28" x2="267.28" xlink:href="#linear-gradient"/>
    <clipPath id="clippath">
      <path class="cls-1" d="M208.43,8.67s67.32,4.1,101.8,18.88c34.48,14.78,34.89,41.46,29.14,69.78-5.74,28.32-16.83,45.97-53.77,45.15-36.94-.82-56.64-12.32-67.73-34.48-11.08-22.16-23.8-60.75-25.44-76.76,0,0,3.69-12.32,16-22.58Z"/>
    </clipPath>
    <linearGradient id="linear-gradient-3" x1="191.53" y1="145.69" x2="191.53" y2="71.82" gradientUnits="userSpaceOnUse">
      <stop offset="0" stop-color="#0059ff"/>
      <stop offset=".05" stop-color="#0660fe"/>
      <stop offset=".21" stop-color="#1673fc"/>
      <stop offset=".46" stop-color="#3697f8"/>
      <stop offset=".68" stop-color="#51b6f5"/>
      <stop offset="1" stop-color="#91ffed"/>
    </linearGradient>
    <linearGradient id="linear-gradient-4" x1="226.82" y1="148.68" x2="226.82" y2="84.52" gradientUnits="userSpaceOnUse">
      <stop offset=".13" stop-color="#ffff75"/>
      <stop offset=".71" stop-color="#ffef62"/>
      <stop offset="1" stop-color="#ffe657"/>
    </linearGradient>
    <clipPath id="clippath-1">
      <path class="cls-1" d="M146.17,9.47s-67.32,4.11-101.79,18.88C9.9,43.13,9.48,69.81,15.23,98.13c5.75,28.32,16.83,45.97,53.77,45.15,36.94-.82,56.64-12.32,67.72-34.48,11.08-22.16,23.81-60.75,25.45-76.76,0,0-3.69-12.32-16.01-22.58Z"/>
    </clipPath>
    <linearGradient id="linear-gradient-5" x1="-6.82" y1="140" x2="-6.82" y2="71.13" gradientTransform="translate(1.61) rotate(-180) scale(1 -1)" xlink:href="#linear-gradient-3"/>
    <linearGradient id="linear-gradient-6" x1="28.46" y1="142.99" x2="28.46" y2="78.83" gradientTransform="translate(1.61) rotate(-180) scale(1 -1)" gradientUnits="userSpaceOnUse">
      <stop offset=".13" stop-color="#ffff75"/>
      <stop offset=".71" stop-color="#ffef62"/>
      <stop offset="1" stop-color="#ffe657"/>
    </linearGradient>
    <linearGradient id="linear-gradient-7" x1="293.36" y1="-19.38" x2="293.36" y2="138.24" gradientUnits="userSpaceOnUse">
      <stop offset="0" stop-color="#fff"/>
      <stop offset="1" stop-color="#000"/>
    </linearGradient>
    <linearGradient id="linear-gradient-8" x1="61.22" x2="61.22" xlink:href="#linear-gradient-7"/>
    <linearGradient id="linear-gradient-9" x1="139.64" y1="24.51" x2="139.64" y2="31.51" gradientUnits="userSpaceOnUse">
      <stop offset="0" stop-color="#c2ebff"/>
      <stop offset="1" stop-color="#99bfff"/>
    </linearGradient>
    <linearGradient id="linear-gradient-10" x1="234.35" y1="48.02" x2="234.35" y2="59.02" xlink:href="#linear-gradient-9"/>
    <linearGradient id="linear-gradient-11" x1="117.31" y1="38.18" x2="117.31" y2="51.26" xlink:href="#linear-gradient-9"/>
    <linearGradient id="linear-gradient-12" x1="126.96" y1="-.2" x2="126.96" y2="133.39" xlink:href="#linear-gradient-7"/>
    <linearGradient id="linear-gradient-13" x1="87.44" y1="-.15" x2="87.44" y2="133.36" xlink:href="#linear-gradient-7"/>
    <linearGradient id="linear-gradient-14" x1="112.52" y1="-.17" x2="112.52" y2="133.38" xlink:href="#linear-gradient-7"/>
    <linearGradient id="linear-gradient-15" x1="115.85" y1="-.15" x2="115.85" y2="133.36" xlink:href="#linear-gradient-7"/>
    <linearGradient id="linear-gradient-16" x1="97" y1="-.17" x2="97" y2="133.38" xlink:href="#linear-gradient-7"/>
    <linearGradient id="linear-gradient-17" x1="112.05" y1="-.18" x2="112.05" y2="133.38" xlink:href="#linear-gradient-7"/>
    <linearGradient id="linear-gradient-18" x1="105.32" y1="-.14" x2="105.32" y2="133.36" xlink:href="#linear-gradient-7"/>
    <linearGradient id="linear-gradient-19" x1="95.95" y1="-.17" x2="95.95" y2="133.38" xlink:href="#linear-gradient-7"/>
    <linearGradient id="linear-gradient-20" x1="114.64" y1="-.19" x2="114.64" y2="133.38" xlink:href="#linear-gradient-7"/>
    <linearGradient id="linear-gradient-21" x1="95.95" y1="-.21" x2="95.95" y2="133.39" xlink:href="#linear-gradient-7"/>
    <linearGradient id="linear-gradient-22" x1="75.79" y1="-.17" x2="75.79" y2="133.38" xlink:href="#linear-gradient-7"/>
    <linearGradient id="linear-gradient-23" x1="105.25" y1="-.17" x2="105.25" y2="133.38" xlink:href="#linear-gradient-7"/>
    <linearGradient id="linear-gradient-24" x1="267.28" y1="-.17" x2="267.28" y2="133.37" xlink:href="#linear-gradient-7"/>
    <linearGradient id="linear-gradient-25" x1="225.81" y1="-.15" x2="225.81" y2="133.36" xlink:href="#linear-gradient-7"/>
    <linearGradient id="linear-gradient-26" x1="264.09" y1="-.18" x2="264.09" y2="133.38" xlink:href="#linear-gradient-7"/>
    <linearGradient id="linear-gradient-27" x1="269.87" y1="-.17" x2="269.87" y2="133.38" xlink:href="#linear-gradient-7"/>
    <linearGradient id="linear-gradient-28" x1="239.01" y1="-.18" x2="239.01" y2="133.38" xlink:href="#linear-gradient-7"/>
    <linearGradient id="linear-gradient-29" x1="265.08" y1="-.17" x2="265.08" y2="133.38" xlink:href="#linear-gradient-7"/>
    <linearGradient id="linear-gradient-30" x1="246.33" y1="-.18" x2="246.33" y2="133.38" xlink:href="#linear-gradient-7"/>
    <linearGradient id="linear-gradient-31" x1="262.51" y1="-.19" x2="262.51" y2="133.38" xlink:href="#linear-gradient-7"/>
    <linearGradient id="linear-gradient-32" x1="262.51" y1="-.18" x2="262.51" y2="133.38" xlink:href="#linear-gradient-7"/>
    <linearGradient id="linear-gradient-33" x1="221.12" y1="-.18" x2="221.12" y2="133.38" xlink:href="#linear-gradient-7"/>
    <linearGradient id="linear-gradient-34" x1="256.5" y1="-.18" x2="256.5" y2="133.38" xlink:href="#linear-gradient-7"/>
    <linearGradient id="linear-gradient-35" x1="241.65" y1="-.19" x2="241.65" y2="133.38" xlink:href="#linear-gradient-7"/>
  </defs>
  <g class="cls-15">
    <g id="Layer_2" data-name="Layer 2">
      <g id="Poster">
        <g>
          <path class="cls-11" d="M146.17,9.3s-67.32,4.11-101.79,18.88C9.9,42.96,9.49,69.64,15.23,97.96c5.75,28.32,16.83,45.97,53.77,45.15,36.94-.82,56.64-12.32,67.72-34.48,11.08-22.16,23.81-60.75,25.45-76.76,0,0-3.69-12.32-16.01-22.58Z"/>
          <path class="cls-9" d="M208.43,9.3s67.32,4.11,101.8,18.88c34.48,14.78,34.89,41.46,29.14,69.78-5.74,28.32-16.83,45.97-53.77,45.15-36.94-.82-56.64-12.32-67.73-34.48-11.08-22.16-23.8-60.75-25.44-76.76,0,0,3.69-12.32,16-22.58Z"/>
          <g>
            <path class="cls-17" d="M349.87,71.26c7.39,8.33,6.06,23.24-3.3,30.22l-.23-.04c.13-.66.28-1.35.41-2.01,1.88-9.28,3.23-18.87,2.87-28.17h.26Z"/>
            <path class="cls-17" d="M7.99,99.43c.13.68.28,1.37.43,2.05-9.36-6.98-10.69-21.89-3.3-30.22-.36,9.3.99,18.89,2.87,28.17Z"/>
            <path class="cls-57" d="M187.52,34.94c0,2.72-2.21,4.93-4.93,4.93h-10.45c-2.72,0-4.93-2.21-4.93-4.93V8.41c1.61-.04,3.26-.04,4.93-.04v26.58h10.45V8.38c1.67.02,3.32.05,4.93.09v26.48Z"/>
            <path class="cls-19" d="M136.73,108.63c11.07-22.17,23.8-60.75,25.45-76.75,0,0-3.68-12.32-16-22.58,0,0-67.33,4.09-101.79,18.87C9.9,42.96,9.49,69.65,15.23,97.97c5.74,28.32,16.84,45.97,53.76,45.15,36.95-.84,56.66-12.32,67.73-34.49ZM187.52,34.94V8.47c-1.61-.04-3.25-.06-4.93-.09-3.47-.04-6.98-.04-10.45-.02-1.67,0-3.32,0-4.93.04v26.54c0,2.72,2.21,4.93,4.93,4.93h10.45c2.72,0,4.93-2.21,4.93-4.93ZM192.43,31.88c1.65,16,14.37,54.58,25.45,76.75,11.07,22.17,30.78,33.65,67.73,34.49,36.93.81,48.03-16.84,53.77-45.15,5.74-28.32,5.33-55.01-29.15-69.79-34.47-14.78-101.79-18.87-101.79-18.87-12.32,10.26-16,22.58-16,22.58ZM349.61,71.26c.36,9.3-.99,18.89-2.87,28.17-.13.66-.28,1.35-.41,2.01-5.55,25.75-16.88,49.1-58.18,49.1-.86,0-1.71-.02-2.59-.05-38.39-.83-61.27-12.75-74.16-38.56-6.9-13.77-13.77-33.63-19.54-50.66-3.02-8.87-7.11-14.61-14.5-14.61s-11.5,5.74-14.5,14.61c-5.76,17.03-12.64,36.89-19.54,50.66-12.9,25.81-35.77,37.72-74.16,38.56-.88.02-1.74.05-2.59.05-21.19,0-34.49-6.15-43.16-15.59-8.23-8.98-12.32-20.93-15-33.46-.15-.69-.3-1.37-.43-2.05-1.88-9.28-3.23-18.87-2.87-28.17.75-19.73,9.17-38.22,36.35-49.87C76.71,6.28,142.92,2.08,145.73,1.94c13.84-1.03,28.96-1.78,31.64-1.78s17.8.75,31.64,1.78c2.81.15,69,4.35,104.25,19.45,27.19,11.65,35.6,30.14,36.35,49.87Z"/>
          </g>
          <polygon class="cls-16" points="183.59 36.09 170.83 36.09 170.83 8.17 173.12 8.17 173.12 33.81 181.3 33.81 181.3 8.17 183.59 8.17 183.59 36.09"/>
          <path class="cls-18" d="M5.06,71.32c-1.25,2.64-2.05,5.18-2.48,7.77-.4,2.58-.5,5.17-.18,7.72.24,2.56.9,5.07,1.85,7.5.98,2.43,2.32,4.75,4.08,7.07l-.14.18c-4.61-3.38-7.43-8.86-8.07-14.5-.59-5.64.93-11.64,4.76-15.89l.18.15Z"/>
          <path class="cls-18" d="M349.8,71.17c3.83,4.25,5.35,10.25,4.76,15.89-.64,5.64-3.46,11.13-8.07,14.5l-.14-.18c1.76-2.32,3.1-4.64,4.08-7.07.95-2.43,1.61-4.94,1.85-7.5.31-2.55.21-5.15-.19-7.72-.43-2.59-1.23-5.13-2.48-7.77l.17-.15Z"/>
          <path class="cls-25" d="M177.22,46.82c-3.49-.08-6.83,1.58-9.03,4.25-2.25,2.64-3.69,5.87-4.87,9.13-2.25,6.6-4.47,13.23-6.82,19.81-2.34,6.58-4.77,13.13-7.43,19.6-2.7,6.44-5.45,12.9-9.17,18.87-3.73,5.94-8.37,11.34-13.88,15.7-5.49,4.39-11.75,7.75-18.32,10.17-13.2,4.84-27.35,6.21-41.29,6.33v-.34c6.96-.71,13.89-1.41,20.66-2.85,6.78-1.25,13.45-3.02,19.7-5.64,6.21-2.68,12.17-5.83,17.29-10.11,5.15-4.22,9.46-9.38,12.93-15.09,3.56-5.53,6.44-11.95,9.18-18.25,2.77-6.34,5.12-12.88,7.8-19.31,2.61-6.47,5.07-12.96,7.62-19.53,1.43-3.28,3.14-6.58,5.72-9.26,1.29-1.32,2.82-2.45,4.55-3.14,1.73-.67,3.58-.86,5.34-.71v.34Z"/>
          <path class="cls-18" d="M285.4,150.61c-13.71-.31-27.62-1.94-40.48-7.04-6.4-2.55-12.45-6.03-17.71-10.5-5.28-4.45-9.72-9.84-13.27-15.75-3.52-5.94-6.23-12.29-8.86-18.64-2.6-6.37-4.99-12.82-7.29-19.3-2.31-6.47-4.49-13-6.72-19.5-1.18-3.2-2.63-6.38-4.88-8.97-2.2-2.62-5.53-4.23-8.97-4.15v-.23c1.73-.1,3.52.13,5.18.8,1.66.68,3.13,1.78,4.36,3.07,2.47,2.61,4.1,5.82,5.45,9.05l7.26,19.32c2.53,6.38,4.88,12.82,7.55,19.11,2.67,6.27,5.44,12.57,8.89,18.26,3.39,5.75,7.61,11,12.66,15.34,5.02,4.39,10.88,7.72,17.03,10.44,6.18,2.67,12.76,4.5,19.45,5.77,6.69,1.39,13.51,2.09,20.37,2.69v.23Z"/>
          <path class="cls-25" d="M338.55,39.37c3.98,4.93,6.98,10.67,8.76,16.76,1.81,6.09,2.49,12.47,2.45,18.81-.02,6.34-.76,12.66-1.81,18.9-1.09,6.24-2.37,12.45-4.25,18.51-1.9,6.04-4.41,11.96-7.97,17.24-3.54,5.28-8.19,9.84-13.64,13.13-5.44,3.32-11.55,5.4-17.77,6.58-6.24,1.18-12.6,1.52-18.92,1.37v-.34c6.32-.52,12.59-1.16,18.58-2.8,6-1.45,11.76-3.71,16.72-7.08,4.92-3.39,9.22-7.55,12.44-12.6,3.25-5.01,5.56-10.66,7.29-16.52,1.89-5.82,3.27-11.9,4.44-18.02,1.18-6.11,1.83-12.26,2.22-18.39.32-6.13-.07-12.31-1.52-18.27-1.25-6.04-3.86-11.74-7.29-17.06l.27-.21Z"/>
          <path class="cls-18" d="M66.41,150.64c-10.14,0-20.5-1.36-29.77-5.73-4.61-2.18-8.86-5.14-12.44-8.78-3.59-3.63-6.49-7.91-8.78-12.46-4.58-9.14-6.88-19.2-8.69-29.18-1.76-10-2.74-20.28-1.3-30.41.73-5.05,2.09-10.02,4.21-14.66,2.12-4.65,5.02-8.93,8.49-12.67,6.97-7.51,16.04-12.74,25.46-16.51,9.48-3.77,19.35-6.4,29.27-8.63,9.94-2.2,19.97-3.94,30.05-5.4,10.07-1.44,20.18-2.6,30.32-3.52,10.14-.9,20.29-1.53,30.45-2.11,5.08-.23,10.15-.64,15.26-.55,5.09.19,10.17.47,15.24.76,10.15.63,20.31,1.28,30.43,2.27,20.24,2.02,40.45,4.8,60.28,9.39,9.89,2.35,19.74,5.12,29.08,9.2,9.29,4.07,18.09,9.8,24.52,17.77l-.18.14c-6.53-7.83-15.34-13.36-24.63-17.26-9.33-3.9-19.18-6.5-29.06-8.68-19.8-4.37-39.97-6.98-60.17-8.79-5.05-.44-10.12-.83-15.16-1.12l-15.22-.94c-5.07-.28-10.15-.54-15.2-.71-4.84-.07-10.05.36-15.08.6-10.13.62-20.28,1.28-30.36,2.21-10.09.95-20.17,2.14-30.19,3.61-10.03,1.43-20.02,3.11-29.9,5.27-9.86,2.18-19.65,4.76-28.97,8.43-9.26,3.67-18.06,8.72-24.79,15.93-6.75,7.15-10.95,16.44-12.39,26.24-1.49,9.82-.64,19.96,1.01,29.9,1.71,9.94,3.91,19.89,8.3,28.9,2.17,4.49,4.93,8.72,8.38,12.32,3.44,3.62,7.55,6.59,12.06,8.81,9.05,4.46,19.34,5.99,29.47,6.15v.23Z"/>
          <path class="cls-25" d="M146,9.13c5.08-1.66,10.31-2.58,15.51-3.1,5.21-.58,10.43-.74,15.64-.78,5.22.08,10.43.28,15.63.88,5.2.53,10.4,1.46,15.5,2.99l-.03.34c-10.35-.69-20.74-.77-31.12-.78-5.19-.04-10.38-.04-15.57.05-5.19.11-10.38.24-15.54.73l-.04-.34Z"/>
          <path class="cls-25" d="M187.46,8.17c.33,3.31.47,6.62.71,9.94l.41,9.93c.08,1.66.13,3.32.14,4.97,0,.87.06,1.57,0,2.57-.12,1.18-.48,2.13-1.1,3.02-1.16,1.77-3.44,2.84-5.44,2.75l-4.97.06-4.97-.07c-1.99.09-4.28-.98-5.43-2.74-.61-.87-.98-1.91-1.09-2.96-.04-.57-.03-1-.02-1.39l.02-1.25c0-1.65.07-3.31.14-4.97l.4-9.93c.24-3.31.38-6.62.71-9.94h.17l.04,19.87v4.97c.03.82-.02,1.67.05,2.47.1.79.38,1.57.85,2.22.93,1.32,2.54,2.09,4.16,2.01h4.97s4.97,0,4.97,0c1.62.08,3.23-.69,4.16-2.01.47-.65.75-1.44.85-2.22.06-.8.02-1.65.04-2.47v-4.97s.05-19.87.05-19.87h.17Z"/>
          <g class="cls-2">
            <g class="cls-58">
              <g>
                <g>
                  <path class="cls-8" d="M-.87,76.49c43.95-10.5,400.55,0,400.55,0l46.68,69.2H-63.29L-.87,76.49Z"/>
                  <path class="cls-7" d="M54.22,106.88c18.35-3.5,37.83,12.58,61.45,15.09,27.13,2.88,58.62-7.46,82-7.44,12.95.01,23.4,7.85,33.45,8.97,36.08,4,44.96-19.85,90.42-16.62,64.59,4.6,92.01-22.36,92.01-22.36l41.88,64.16H-1.78l56-41.8Z"/>
                </g>
                <g>
                  <path class="cls-26" d="M313.34,135.57c.6,4.71,10.14,1.29,8.32-2-1.83-3.29-8.74-1.31-8.32,2Z"/>
                  <path class="cls-14" d="M323.12,130.11c-.68,3.05,6,3.07,5.6.62-.4-2.45-5.12-2.77-5.6-.62Z"/>
                  <path class="cls-14" d="M278.05,122.14c-.8,3.58,7.03,3.59,6.57.72-.47-2.87-6.01-3.24-6.57-.72Z"/>
                  <path class="cls-26" d="M171.09,140.89c.25-4.91-10.11-3.17-8.85.52,1.26,3.69,8.67,2.94,8.85-.52Z"/>
                  <path class="cls-14" d="M155.36,136.4c-.68,3.05,6,3.07,5.6.62-.4-2.45-5.12-2.77-5.6-.62Z"/>
                  <path class="cls-53" d="M164.33,133.78c-.56,2.5,4.92,2.51,4.59.51-.33-2-4.2-2.26-4.59-.51Z"/>
                  <path class="cls-53" d="M195.99,117.77c-.56,2.5,4.91,2.51,4.59.51-.33-2-4.2-2.26-4.59-.51Z"/>
                  <path class="cls-26" d="M221.18,138.38c-.51-5.79-12.35-2.06-10.27,2.05,2.08,4.11,10.63,2.02,10.27-2.05Z"/>
                  <path class="cls-24" d="M202.68,141.84c-.56,2.5,4.91,2.51,4.59.51-.33-2-4.2-2.26-4.59-.51Z"/>
                  <path class="cls-24" d="M330.08,116.14c-.06,3.72,7.72,2.15,6.67-.61-1.05-2.75-6.63-2-6.67.61Z"/>
                  <path class="cls-53" d="M75.9,138.54c-.85,3.84,7.54,3.85,7.04.78-.5-3.08-6.44-3.47-7.04-.78Z"/>
                  <path class="cls-14" d="M83.64,135.25c-.68,3.05,6,3.07,5.61.62-.4-2.45-5.13-2.77-5.61-.62Z"/>
                  <path class="cls-14" d="M238.03,140.35c-.8,3.58,7.03,3.59,6.57.72-.47-2.87-6.01-3.24-6.57-.72Z"/>
                </g>
              </g>
              <g>
                <path class="cls-56" d="M325.17,118.18c-.53,1.72-1.04,3.46-1.52,5.2l-1.93,7.87c-.2-1.22-.41-2.44-.63-3.66l1.05-4.04c.21-.73.42-1.46.63-2.19,7.25-24.53,15.97-42.74,19.42-49.5l.15.02c-2.85,6.25-9.81,22.41-17.17,46.3Z"/>
                <path class="cls-56" d="M319.01,135.7l1.49-5.76c.2,1.31.4,2.61.59,3.91l-.66,2.68c-3.72,17.29-5.49,33.83-6.25,42.77-.37,4.32-.5,6.87-.5,6.87h-2.41s.17-2.54.61-6.87c.91-9.01,2.99-25.76,7.13-43.6Z"/>
                <path class="cls-55" d="M320.5,129.93c-1.86-12.17-3.91-24.42-6-34.99h.05c2.52,10.82,4.64,21.72,6.54,32.65.22,1.22.43,2.44.63,3.66,2.72,15.98,5.03,32.02,7.53,48.05.39,2.54.79,5.09,1.2,7.63h-2.13c-.26-2.05-.59-4.64-.97-7.65-1.42-11.1-3.64-27.98-6.26-45.43-.19-1.3-.39-2.6-.59-3.91h0Z"/>
                <path class="cls-12" d="M341.41,68.93c.13.46.25.93.33,1.42-.02-.01-.04-.01-.05-.01-.19-.12-.39-.24-.59-.36h0c-4.75-5.86-12.19-5.99-18.78-9.05,6.47-3.45,15.46,1.53,19.1,7.99h0Z"/>
                <path class="cls-12" d="M330.76,87.13c-5.19,2.03-10.8,2.83-15.75,6.02.39-.58.8-1.13,1.24-1.65.01,0,.02-.02.03-.02,3.89-3.39,9.74-6.54,14.48-4.35Z"/>
                <path class="cls-12" d="M314.39,93.17c.04-.12.05-.15.03-.09,0,.03-.02.06-.03.09ZM314.44,93.02c.02-.06.02-.05,0,0h0ZM314.35,93.32h0s0,0,0,0ZM314.33,93.35c-.1-.81-.21-1.68-.36-2.57.37-4.45,3.04-9.44,6.26-11.45-.87,4.35-4.87,8.47-5.55,13.16-.13.31-.24.61-.35.91v-.02h0s.01-.04.01-.04h-.01Z"/>
                <path class="cls-12" d="M313.97,90.78c-.07.87-.05,1.72.06,2.52-.1-.13-.2-.26-.3-.39-1.77-4.08-4.13-8.08-5.07-12.41,3.37,1.76,4.66,6.23,5.31,10.28Z"/>
                <path class="cls-12" d="M313.5,93.52c-1.28-.41-2.73-.74-4.27-.96-8.77-2.33-18.49-.03-27.36-1.62,7.79-4.71,23.66-3.08,31.63,2.58Z"/>
                <path class="cls-3" d="M332.96,56.76c5.73,1.03,9.46,7.77,9.3,13.63,0,.01,0,.02,0,.02-.04,0-.09-.02-.13-.02-.21-.49-.45-.98-.72-1.46h0c-1.44-4.88-5.35-8.05-8.45-12.17Z"/>
                <path class="cls-3" d="M341.1,69.98c.09.11.17.22.25.33-.37-.04-.75-.07-1.12-.08h-.02c-6.24-2.07-12.59-1.27-19.1-2.13,5.59-3.19,14.14-1.53,19.98,1.87h0Z"/>
                <path class="cls-3" d="M341.69,70.77s.05.06.06.08c-3.32.87-6.97,2.85-10.35,2.2,2.2-2.29,5.51-2.95,8.81-2.82h.02c.49.16.97.34,1.46.54Z"/>
                <path class="cls-3" d="M314.66,93.72c3-1.02,8.66-2.18,10.41,1.29-3.37.07-6.92-.86-10.48-.93-.01-.09-.01-.18-.01-.27.01-.03.03-.05.05-.07h0s.02-.02.03-.02Z"/>
                <path class="cls-3" d="M316.25,91.5c-.53.47-1.03.94-1.48,1.4t-.02.02s-.03.03-.05.05c0,0-.02.02-.03.03,0,0-.03.03-.06.06.02-.19.04-.38.07-.57,2.99-7.28,11.3-14.87,19.24-14.55-4.95,5.38-12.7,7.72-17.64,13.54,0,0-.02,0-.03.02Z"/>
                <path class="cls-3" d="M313.73,92.91c.13.27.25.54.35.81-.13-.05-.26-.09-.4-.14-.01,0-.02,0-.04,0h0c-6.81-6.03-15.41-5.64-23.67-8.19,7.08-4.68,18.76,1.08,23.77,7.53Z"/>
                <path class="cls-3" d="M309.23,92.56c1.26.32,2.49.75,3.7,1.3-7.29.35-13.34,2.4-20.24,5.96l-.24-.2c.02-.08.05-.16.07-.24,2-6.64,10.11-7.79,16.71-6.82Z"/>
                <path class="cls-3" d="M313.84,94.3h0s0,0,0,0c-5.41,2.1-9.2,5.5-12.89,9.96-2.69-6.49,6.52-9.8,12.04-10.36.28.11.56.25.83.4Z"/>
              </g>
            </g>
          </g>
          <g class="cls-2">
            <g class="cls-20">
              <g>
                <g>
                  <path class="cls-4" d="M200.83,75.8c-43.95-10.5-400.55,0-400.55,0l-46.68,64.2h509.65l-62.43-64.2Z"/>
                  <path class="cls-5" d="M145.75,101.19c-18.35-3.5-37.83,12.58-61.45,15.09-27.13,2.88-58.62-7.46-82-7.44-12.96.01-23.4,7.85-33.45,8.97-36.08,4-44.96-19.85-90.42-16.62-64.59,4.6-92.01-22.36-92.01-22.36l-41.88,64.16H201.75l-56-41.8Z"/>
                </g>
                <g>
                  <path class="cls-26" d="M28.87,135.2c-.25-4.91,10.11-3.17,8.85.52-1.26,3.69-8.67,2.94-8.85-.52Z"/>
                  <path class="cls-14" d="M44.6,130.71c.68,3.05-6,3.07-5.6.62.4-2.45,5.12-2.77,5.6-.62Z"/>
                  <path class="cls-53" d="M35.63,128.09c.56,2.5-4.91,2.51-4.59.51.33-2,4.2-2.26,4.59-.51Z"/>
                  <path class="cls-53" d="M3.97,112.08c.56,2.5-4.92,2.51-4.59.51.33-2,4.2-2.26,4.59-.51Z"/>
                  <path class="cls-53" d="M124.06,132.86c.85,3.84-7.54,3.85-7.04.78.5-3.08,6.44-3.47,7.04-.78Z"/>
                  <path class="cls-14" d="M116.33,129.56c.68,3.05-6,3.07-5.61.62.4-2.45,5.13-2.77,5.61-.62Z"/>
                </g>
              </g>
              <g>
                <path class="cls-56" d="M50.07,116.65c-1.28,4.09-8.26,26.68-11.08,43.41-.04-.76-.08-1.52-.12-2.28l-.23-4.39c4.16-18.85,10.96-36.93,10.96-36.93,1.66-4.56,3.42-9.09,5.3-13.57.02,0,.04,0,.06-.02-1.66,4.34-3.22,8.72-4.68,13.13-.03.1-.07.19-.09.29-.05.12-.09.24-.12.36Z"/>
                <path class="cls-56" d="M62.6,179.69c-.29,1.4-.57,2.81-.84,4.21l-1.21,6.31c-.41,2.21-.8,4.42-1.18,6.63l-2.79-.52c.81-3.83,1.67-7.62,2.57-11.41l.74-3.11c.21-.86.42-1.71.63-2.57,1.4-5.67,2.88-11.33,4.46-16.95.64-2.3,1.32-4.59,1.99-6.88,1.35-4.58,4.47-13.88,4.47-13.88,1.18-3.39,2.44-6.75,3.81-10.06l.1.03c-1.27,3.45-2.41,6.94-3.48,10.46,0,0-3.1,10.91-3.82,13.81-.58,2.29-1.15,4.58-1.7,6.88-1.34,5.66-2.59,11.35-3.75,17.05Z"/>
                <path class="cls-56" d="M50.51,70.14c-5.73,7.61-10.75,15.74-15.07,24.2-.02-.38-.05-.77-.07-1.15,4.39-8.09,9.42-15.84,15.09-23.08l.05.03Z"/>
                <path class="cls-56" d="M11.92,168.94c.75-5.95,1.78-11.87,2.9-17.76.92-4.81,7.43-28.84,13.65-43.86,1.19-2.88,2.57-5.68,3.96-8.47.66-1.35,1.35-2.68,2.05-4.01h0c0,.43.03.86.05,1.28h0c-.5,1.02-.99,2.02-1.48,3.04-1.3,2.74-2.71,5.44-3.69,8.3-3.76,11.04-9.76,28.46-12.83,44.23-1.12,5.79-1.88,11.64-2.5,17.5-.65,6.03-1.07,12.09-1.27,18.15-.18,6.05-.18,12.15.24,18.12l-2.83.21c-.32-6.2-.19-12.3.11-18.43.32-6.12.86-12.22,1.63-18.3Z"/>
                <path class="cls-55" d="M12.98,82.07c-2.62,5.75-9.02,20.61-15.78,42.57-.49,1.57-.96,3.17-1.4,4.78l-1.77,7.25h0c-.18-1.12-.38-2.24-.57-3.37l.96-3.73c.19-.67.38-1.34.58-2.01,6.67-22.55,14.68-39.29,17.86-45.51l.13.02Z"/>
                <path class="cls-55" d="M20.69,69.86c-.1.52-.17,1.06-.18,1.61l.14.02c-.09.42-.17.84-.25,1.27-.15.07-.3.13-.45.21.25-1.1.5-2.13.74-3.11Z"/>
                <path class="cls-55" d="M20.4,72.76c-.2,1-.39,2-.58,3.01-.18.05-.35.12-.52.2.21-1.04.43-2.04.65-3,.15-.08.3-.14.45-.21Z"/>
                <path class="cls-55" d="M19.82,75.77c-.09.44-.17.88-.25,1.32-.18.04-.36.09-.54.14.09-.43.18-.85.27-1.26.17-.08.34-.15.52-.2Z"/>
                <path class="cls-55" d="M19.57,77.09c-.11.57-.22,1.14-.31,1.71-.19.02-.37.04-.55.08.1-.56.21-1.11.32-1.65.18-.05.36-.1.54-.14Z"/>
                <path class="cls-55" d="M19.26,78.8c-.11.55-.22,1.11-.31,1.67-.18-.03-.36-.05-.54-.07.1-.52.19-1.02.3-1.52.18-.04.36-.06.55-.08Z"/>
                <path class="cls-55" d="M18.95,80.47c-.1.5-.19,1-.28,1.5-.17-.08-.35-.14-.53-.2.09-.46.18-.92.27-1.37.18.02.36.04.54.07Z"/>
                <path class="cls-55" d="M18.67,81.97c-.17.94-.33,1.87-.49,2.81-.15-.23-.31-.45-.47-.67.15-.8.29-1.58.43-2.34.18.06.36.12.53.2Z"/>
                <path class="cls-55" d="M18.18,84.78c-.16.87-.31,1.75-.46,2.63-.13-.35-.26-.7-.41-1.06.13-.76.27-1.5.4-2.24.16.22.32.44.47.67Z"/>
                <path class="cls-55" d="M13.53,110.42c1.23-8.58,2.5-16.82,3.78-24.07.15.36.28.71.41,1.06-1.27,7.53-2.43,15.1-3.47,22.53,0,0-2.92,23.06-4.68,39.36-2.46,22.73-3.22,38.78-3.22,38.78h-2.21s1.82-17.3,4.39-39.21c1.59-13.58,5-38.45,5-38.45Z"/>
                <path class="cls-55" d="M38.99,160.06c.82,15.96,1.61,31.92,2.37,47.89l-2.84.11c-.41-12.91-.83-25.82-1.28-38.74-.1-3.07-.21-6.14-.32-9.21-.04-1.41-.09-2.83-.14-4.24l-1.73-46.91c-.11-2.84-.22-5.68-.34-8.52.36.03.71.05,1.07.06.18,2.97.35,5.94.51,8.91l2.35,43.98.23,4.39c.04.76.08,1.52.12,2.28Z"/>
                <path class="cls-55" d="M34.5,78.39c.04.73.09,1.45.13,2.18-.24-.02-.49-.04-.75-.08-.03-.69-.06-1.37-.09-2.06-.01-.17-.02-.33-.02-.5.25.09.49.18.72.27,0,.06,0,.13,0,.19Z"/>
                <path class="cls-55" d="M35.44,94.34c.08,1.43.16,2.85.24,4.28-.35.16-.69.35-1.02.57-.04-1.02-.08-2.04-.12-3.06h0c-.02-.43-.04-.86-.05-1.29-.2-4.78-.41-9.56-.61-14.35.26.04.51.06.75.08.25,4.21.5,8.41.74,12.62.02.38.05.77.07,1.15Z"/>
                <path class="cls-55" d="M34.49,78.2c-.23-.09-.47-.18-.72-.27-.13-2.82-.26-5.63-.38-8.45.19.07.38.13.57.2.18,2.84.35,5.68.53,8.52Z"/>
                <path class="cls-55" d="M33.96,69.68c-.19-.07-.38-.13-.57-.2-.05-.92-.09-1.83-.13-2.75.18.05.35.1.53.16.05.93.11,1.86.17,2.79Z"/>
                <path class="cls-55" d="M33.79,66.89c-.18-.06-.35-.11-.53-.16-.06-1.31-.13-2.62-.19-3.93.15-.04.3-.08.45-.12.09,1.4.18,2.81.27,4.21Z"/>
                <path class="cls-55" d="M33.35,60.09c.05.86.11,1.73.17,2.59-.15.04-.3.08-.45.12-.04-.9-.08-1.79-.13-2.69.13-.01.27-.02.41-.02Z"/>
                <path class="cls-55" d="M33.35,60.09c-.14,0-.28,0-.41.02-.07-1.42-.14-2.85-.21-4.28.1-.1.21-.2.31-.31.11,1.52.21,3.05.31,4.57Z"/>
                <path class="cls-55" d="M32.94,54.05c.04.49.07.98.1,1.47-.1.11-.21.21-.31.31-.03-.58-.06-1.16-.09-1.74.1-.02.2-.04.3-.04Z"/>
                <path class="cls-55" d="M31.63,36.63c.49,5.8.91,11.61,1.31,17.42-.1,0-.2.02-.3.04-.3-5.82-.64-11.63-1.03-17.45h0s.02-.01.02-.01Z"/>
                <path class="cls-3" d="M21.66,65.4s0,.03,0,.05,0,.03,0,.05c-.22.73-.39,1.46-.51,2.16,0-.07,0-.12,0-.17,0-.07,0-.12,0-.16h0c0-5.37-4.27-8.32-6.98-12.43,3.9.73,6.81,4.79,7.39,8.94v.05c.02.51.05.99.1,1.42v.12-.03Z"/>
                <path class="cls-3" d="M11.84,80.32c.08.1.16.2.24.31-.35-.04-.7-.06-1.05-.08h-.02c-5.73-1.9-11.56-1.16-17.54-1.96,5.14-2.94,13-1.4,18.36,1.72h0Z"/>
                <path class="cls-3" d="M4.36,68.17c5.24.95,8.68,7.12,8.55,12.49t0,.02s0,.03,0,.04c-.04,0-.08-.02-.12-.02-.18-.44-.39-.87-.64-1.3-1.31-4.51-4.92-7.42-7.78-11.23Z"/>
                <path class="cls-3" d="M18.71,78.88c-1.67.26-3.28.83-4.78,1.85-.03.01-.06.02-.09.03h-.02s0,0-.02-.02c.01-.01.02-.01.02-.01h-.03s-.01.01-.01.01c-.02-.01-.05-.02-.08-.04h-.01s-.04,0-.06-.02h0c.11-.25.21-.45.29-.62,0,0,0,0,0-.02s0,0,0,0c1.38-1.3,3.14-2.21,5.09-2.8-.11.54-.22,1.09-.32,1.65Z"/>
                <path class="cls-3" d="M13.94,80.03c.13-.29.22-.48.26-.56-.05.09-.18.32-.36.66-.1.08-.19.18-.28.27.33-.93.64-1.95.86-3,1.33-1.88,3.31-3.4,5.53-4.43-.22.96-.44,1.96-.65,3-2.18.85-4.1,2.05-5.36,4.06Z"/>
                <path class="cls-3" d="M20.4,72.76c3.45-1.48,7.4-1.82,10.43-.57-3.02,1.73-7.32,2.22-11.01,3.58.19-1.01.38-2.01.58-3.01Z"/>
                <path class="cls-3" d="M38.81,80.6c-1.33.17-2.73.14-4.18-.03-.04-.73-.09-1.45-.13-2.18,0-.06,0-.13,0-.19,1.66.65,3.14,1.46,4.32,2.4Z"/>
                <path class="cls-3" d="M33.79,78.43c.03.69.06,1.37.09,2.06-4.75-.61-9.92-2.26-14.62-1.69.09-.57.2-1.14.31-1.71,4.47-1.18,9.86-.7,14.2.84,0,.17,0,.33.02.5Z"/>
                <path class="cls-3" d="M16.52,30.46c4.41-3.57,12.05-.34,14.71,4.67.03.29.07.56.13.83-.23-.18-.48-.36-.73-.52-3.86-3.94-9.3-2.92-14.11-4.98Z"/>
                <path class="cls-3" d="M31.23,35.13c-.28-2.5.21-5.72,2.16-7.15.87-.66,1.93-1.06,3.03-.95-2.18,2.32-4.15,5.15-4.61,8.45,0,0,0,0-.04.09,0,.04-.04.11-.08.19l-.03.07s0,.03,0,.05c0,.01,0,.02,0,.02l-.03.06s-.02-.07-.04-.1c0-.18-.03-.37-.05-.55.02.17.03.35.04.52-.1-.24-.21-.47-.33-.7Z"/>
                <path class="cls-3" d="M31.73,36.25c0-.2.02-.4.05-.6h.01c3.51-6.98,15.29-7.8,20.7-2.91-6.55.96-15.75-3.25-20.75,3.68h-.03s0-.08.01-.12h.02s0-.04,0-.05Z"/>
                <path class="cls-3" d="M53.92,43.19c-7.16-1.83-13.31-10.15-21.83-6.71l-.15-.25c6.91-4.79,18.6-.14,21.98,6.96Z"/>
                <path class="cls-3" d="M22.26,63.77c-.22.56-.42,1.12-.58,1.68t0-.02v-.12c0-.47-.04-.94-.1-1.42v-.05c-.18-4.3.4-10.74,4.84-11.8-1.61,3.84-3.27,7.58-4.15,11.73Z"/>
                <path class="cls-3" d="M51.84,69.04c.14-.14.29-.26.44-.38.01.02.01.05.01.07v-.08c.94,7.62,5.26,13.8,6.74,21.21-6.37-3.03-7.85-13.98-7.19-20.82Z"/>
                <path class="cls-3" d="M60.51,84.92c-3.23-4.98-2.57-12.46-7.8-16.62.05-.05.11-.09.16-.13.07-.03.13-.05.2-.08,5.66,2.51,9.96,11.03,7.44,16.83Z"/>
                <path class="cls-3" d="M52.66,66.81c-.18.28-.35.57-.51.86t0,.02c-.06.07-.12.15-.18.22v-.15c.01-.08.01-.18.01-.18,0-.15,0-.16,0,0,0,.03,0,.07-.01.11,0-.19,0-.38,0-.57.03.02.05.05.07.07.03.03.06.07.1.12l.25-.12c-.12-.42-.29-.86-.5-1.33,0-.03,0-.06-.01-.08.37-1.28.82-2.61,1.34-3.92.08,1.72-.13,3.47-.53,4.94h0Z"/>
                <path class="cls-3" d="M53.2,61.86c-.52,1.31-.97,2.64-1.34,3.92-.5-4.24-2.87-7.35-4.2-11.5,3.83.17,5.37,3.8,5.54,7.58Z"/>
                <path class="cls-12" d="M35.68,98.62c.04.63.08,1.25.1,1.88-.36,0-.71-.03-1.07-.06-.02-.41-.03-.83-.05-1.25.33-.22.67-.41,1.02-.57Z"/>
                <path class="cls-3" d="M75.52,129.19c-7.67-1.08-14.4,1.13-21.92,2.19,3.72-6.63,15.43-5.14,21.88-2.69.02.16.03.32.04.48v.02Z"/>
                <path class="cls-3" d="M77.86,131c-.26-.46-.51-.91-.78-1.33,4.82,1.67,10.49,7.4,9.92,12.73-4.09-2.54-5.5-7.97-9.14-11.4Z"/>
                <path class="cls-3" d="M77.96,126.42c-.48.44-.93.91-1.33,1.42l-.12-.05c.03-.22.05-.43.08-.65h0c.76-1.89,2.13-3.94,3.83-5.65-.77,1.66-1.62,3.32-2.46,4.93Z"/>
                <path class="cls-3" d="M77.96,126.42c.84-1.61,1.69-3.27,2.46-4.93,2.41-2.39,5.49-4.09,8.53-3.57-2.4,3.84-7.5,5.28-10.99,8.5Z"/>
                <path class="cls-3" d="M75.02,113.13c1.02,3.94,1.37,8.22,1.27,12.1-.14.66-.27,1.3-.39,1.93-.43-4.42-.98-9.3-.88-14.03Z"/>
                <path class="cls-3" d="M77.56,120.32c-.52,1.61-.93,3.29-1.27,4.91.1-3.88-.25-8.16-1.27-12.1.08-4.01.61-7.91,2.08-11.35,2.08,5.08,1.39,12.02.46,18.54Z"/>
                <path class="cls-3" d="M61.36,110.71c.14.64.24,1.29.26,1.93-.62-.68-1.22-1.37-1.8-2.1.52,0,1.04.07,1.54.17Z"/>
                <path class="cls-3" d="M75.35,127.34c-.34-.45-.72-.91-1.11-1.35-3.47-5.21-8.43-8.78-12.62-13.35-.02-.64-.12-1.29-.26-1.93,6.26,1.23,11.48,8.94,13.79,15.17.08.48.15.97.2,1.46Z"/>
                <path class="cls-3" d="M53.77,101.14c-3.73-5.11-9.33-6.65-14.63-10,6.6-2.75,13.66,4.48,15.72,10.72-.34-.25-.71-.49-1.09-.72Z"/>
                <path class="cls-3" d="M55.28,101.1c-.96-5.58-5.09-8.38-7.6-13.09,5.05-.42,7.78,5.44,8.1,10.36-.25.95-.41,1.89-.49,2.68v.02s-.01.02-.01.03Z"/>
                <path class="cls-3" d="M56.44,101.63c-.28,0-.55,0-.81,0,0,0,0-.02.01-.02.06,0,.1-.01.14-.01h-.14c.13-.2.27-.41.41-.61t.02-.03c3.47-3.36,10.59-4.9,14.36-1.94-4.11,2.32-9.59.35-13.99,2.61Z"/>
                <path class="cls-12" d="M30.63,35.44c.23.23.45.48.67.75l.03.04s.03.04.05.06c.06.08.08.1.06.08h0s.01.02.01.02v.03s0,0,0,.02c.04.02.03.02-.04-.02-.03-.02-.06-.03-.09-.05l.08.05c-7.23-3.63-13.97,1.69-20.92,3.12,3.27-6.16,14.03-8.11,20.14-4.1Z"/>
                <path class="cls-12" d="M31.47,36.79c-7,.89-9.34,7.57-14.43,11.27-.51-6.47,8.03-12.53,14.43-11.59.03.11.05.18.05.18h.09s0,.12,0,.12c-.04,0-.09,0-.13.02Z"/>
                <path class="cls-12" d="M31.88,37c3.81-.8,9.92.5,11.11,4.81-3.38-1.71-7.16-4.35-11.27-4.58l-.02-.19c.06-.01.12-.03.18-.04Z"/>
                <path class="cls-12" d="M75.45,128.27c-5.55-4.87-11.84-5.87-18.84-7.55,5.52-4.21,13.17.25,17.63,5.27.42.63.82,1.28,1.18,1.96,0,.1.02.2.03.3l-.04-.03s.02.02.04.04h0Z"/>
                <path class="cls-12" d="M75.1,130.59l.14-.03c-5.12,1.31-8.95,4.55-13.89,6.2.72-5.75,8.95-7.06,13.99-6.56-.02.11-.04.23-.06.34-.07.02-.13.04-.18.05Z"/>
                <path class="cls-12" d="M79.79,151.63c-2.15-6.66-.9-14.62-3.23-21.68.46.32.9.67,1.3,1.05,3.46,6.31,5.61,15.19,2.5,21.55-.18-.31-.37-.62-.57-.92Z"/>
                <path class="cls-12" d="M91.86,135.07c-4.63-.9-9-7.7-14.33-6.3.51-.42,1.04-.8,1.59-1.14,4.82-1.14,11.55,3.05,12.74,7.44Z"/>
                <path class="cls-12" d="M76.64,128.96c.17-.34.34-.68.53-1.02,4.79-5.7,14.1-9.4,20.96-7.49-5.62,3.65-13.17,3.49-19.01,7.18-.77.18-1.5.5-2.14.98-.03.02-.07.04-.1.07l.16.24c.17-.06.33-.11.49-.15-.22.18-.45.37-.66.56-.07-.11-.13-.22-.2-.32h0s0-.03-.02-.04c0,0,0,0,0,0Z"/>
                <path class="cls-12" d="M75.78,127.78c-.17-.61-.38-1.25-.63-1.9-1.29-8.47-5.02-15.99-7.21-24.34,3.61,2.43,5.84,6.75,7.08,11.59-.1,4.73.45,9.61.88,14.03-.04.21-.08.42-.12.62Z"/>
                <path class="cls-12" d="M76.59,127.13c.28-2.15.64-4.45.97-6.81,1.17-3.62,2.89-6.9,5.64-8.5-.1,3.1-1.27,6.4-2.78,9.67-1.7,1.71-3.07,3.76-3.83,5.64Z"/>
                <path class="cls-12" d="M61.27,92.89c-.82,3.1-3.32,5.33-5.2,8.07t-.02.03c-.14.13-.28.28-.41.43.16-.92.21-1.96.14-3.05.47-1.88,1.27-3.79,2.44-4.61.82-.61,1.85-1.06,3.05-.87Z"/>
                <path class="cls-12" d="M56.44,101.63c5.68.26,12.52,5.08,12.01,11.14-4.53-3.17-6.74-9.07-12.78-10.7.25-.16.51-.31.77-.44Z"/>
                <path class="cls-12" d="M55.43,102.24c2.74,1.56,5.13,4.98,5.93,8.47-.5-.1-1.02-.16-1.54-.17.58.73,1.18,1.42,1.8,2.1.08,1.48-.17,2.91-.85,4.15-3.09-4.04-1.92-10.2-5.67-14.3.02-.07.05-.14.08-.21l.09.07c.05-.04.11-.08.16-.11Z"/>
                <path class="cls-12" d="M54.96,102.74s-.05.09-.06.14h0s-.05.02-.07.02c0,0-.09.03-.15.04-.02,0-.04,0-.06.02-4.48,1.31-8.77,5.25-13.59,4.63,2.02-4.2,9.15-5.44,13.68-5.03.08.14.12.21.12.21l.13-.05v.02Z"/>
                <path class="cls-12" d="M34.66,99.19c.02.42.03.84.05,1.25-.49-.03-.98-.07-1.47-.13.44-.43.91-.8,1.42-1.12Z"/>
                <path class="cls-12" d="M54.43,102.1c-6.23-2.45-12.28-1.32-18.65-1.6-.02-.63-.06-1.25-.1-1.88,5.27-2.57,13.04-.64,18.09,2.52.22.3.44.61.64.94h0s0,0,0,.02Z"/>
                <path class="cls-12" d="M14.67,81.2c1.12.69,2.16,1.71,3.04,2.91-.13.74-.27,1.48-.4,2.24-.78-1.95-1.71-3.8-3.29-5.12.22-.02.44-.03.65-.03Z"/>
                <path class="cls-12" d="M14.67,81.2c-.26-.16-.53-.3-.81-.42h.01s.04-.04.06-.05c1.43-.42,2.95-.52,4.48-.33-.09.45-.18.91-.27,1.37-1.08-.38-2.23-.59-3.47-.57Z"/>
                <path class="cls-12" d="M18.95,80.47c5.95.96,11.85,5.98,12.88,11.52-4.5-2.53-8.1-8.02-13.16-10.02.09-.5.18-1,.28-1.5Z"/>
                <path class="cls-12" d="M18.18,84.78c1.83,2.75,2.9,6.22,2.56,8.8-1.41-1.66-2.17-3.93-3.02-6.17.15-.88.3-1.76.46-2.63Z"/>
                <path class="cls-12" d="M12.4,81.06s.03.04.04.06c-3.05.81-6.41,2.62-9.52,2.03,2.02-2.11,5.06-2.71,8.09-2.6h.02c.46.15.91.32,1.37.51Z"/>
                <path class="cls-12" d="M12.14,79.4c.12.41.22.82.29,1.26,0,0-.03,0-.04,0h-.01c-.17-.11-.35-.22-.54-.33h0c-4.36-5.38-11.2-5.51-17.26-8.32,5.96-3.18,14.26,1.44,17.57,7.4Z"/>
                <path class="cls-12" d="M14.42,77.4c-.6.83-1.06,1.74-1.36,2.71.11-3.62-.57-7.21-.14-10.79,2.13,1.9,2.16,5.1,1.5,8.08Z"/>
                <path class="cls-12" d="M32.94,54.05c.49-.04.99-.05,1.5,0-.45.52-.92,1.01-1.4,1.48-.03-.49-.06-.98-.1-1.47Z"/>
                <path class="cls-12" d="M24.27,63.85c-1.19,1.08-2.18,2.35-2.83,3.77.11-.59.23-1.18.35-1.76t0-.02h.1c.1-.7.22-1.39.36-2.07,1.86-4.7,5.58-9.1,10.38-9.68.03.58.06,1.16.09,1.74-2.8,2.73-6.01,4.97-8.46,8.02Z"/>
                <path class="cls-12" d="M33.35,60.09c1.67-.07,3.32.21,4.82.88-1.4.73-3,1.24-4.65,1.71-.06-.86-.12-1.73-.17-2.59Z"/>
                <path class="cls-12" d="M21.26,69.2c.72-2.09,1.77-3.82,3.01-5.35,2.36-2.14,5.54-3.52,8.67-3.74.05.9.09,1.79.13,2.69-3.79,1.07-7.77,1.98-10.27,4.85-.59.42-1.11.94-1.54,1.55Z"/>
                <path class="cls-12" d="M38.42,69.03c1.07.7,1.97,1.49,2.61,2.33-2.03.03-4.5-.82-7.07-1.68-.06-.93-.12-1.86-.17-2.79,1.69.52,3.29,1.26,4.63,2.14Z"/>
                <path class="cls-12" d="M33.39,69.48c-4.27-1.41-8.75-2.68-11.88.11.37-.73.8-1.37,1.29-1.94,2.68-1.93,6.75-1.96,10.46-.92.04.92.08,1.83.13,2.75Z"/>
                <path class="cls-12" d="M51.27,68.04c-.02.08-.04.15-.05.23-.01,0-.02.01-.03.01h.02c-3.81,1.39-5.86,4.23-8.97,6.67-.25-4.33,4.89-6.71,8.82-6.97.03.01.06.01.08.02.02,0,.03,0,.04,0,.02,0,.04.02.06.02,0,0,.02,0,.02,0h0Z"/>
                <path class="cls-12" d="M38.74,68.55c2.74-2.84,9.08-3.01,12.59-.76,0,.06-.03.12-.04.18-.06,0-.12,0-.19,0h-.04c-4.15-1.21-8.15,1.16-12.32.57Z"/>
                <path class="cls-12" d="M51.85,65.82c-.08.31-.17.61-.25.9-2.9-3.08-6.46-3.43-10.03-5.47-.28-1.4.9-1.87,3.55-1.41,2.83.13,5.5,3.3,6.73,5.98Z"/>
                <path class="cls-12" d="M52.67,66.8c.4-1.47.61-3.22.53-4.94,1.92-4.79,4.94-9.42,9.5-10.55-2.09,5.41-6.78,10.21-10.03,15.49Z"/>
                <path class="cls-12" d="M52.23,68.08c.11-.26.22-.54.3-.84,5.61-6.24,15.32-10.7,23.25-8.48-6.65,3.49-14.43,3.98-20.92,8.02,0,0,0,0,0,0-.15.06-.29.13-.43.21h0s-.09,0-.25-.04c-.03,0-.06,0-.1,0l-.19-.03s-.02,0-.03,0h-.03c-.07-.02-.15-.03-.23-.04l-.06.28c.13.05.25.09.37.14-.37.21-.73.44-1.07.69l-.12-.05-.11.21v.02c-.11.07-.22.15-.32.24,0-.02,0-.03,0-.05s0-.05,0-.07c0-.03,0-.05,0-.08v-.09h0v-.02h0Z"/>
                <path class="cls-12" d="M82.67,73.85c-8.61-2.59-17.79-8.55-27.03-6.53-.39-.11-.78-.21-1.17-.29,0-.01.02-.02.03-.02.12-.08.23-.15.35-.22,0,0,0,0,0,0,8.5-4.01,22.04.02,27.96,6.83l-.15.24Z"/>
                <path class="cls-12" d="M55.64,67.32c8.12,2.2,16.58,9.9,15.79,18.68-5.6-6.54-8.16-14.67-16.82-18.42.34-.1.69-.19,1.03-.26Z"/>
              </g>
            </g>
          </g>
          <path class="cls-54" d="M69,143c6.72-.42,13.41-1.2,19.95-2.56,6.53-1.39,12.98-3.13,18.95-5.94,5.99-2.75,11.42-6.51,16.06-11.07,4.62-4.58,8.3-10.06,11.16-15.96,5.7-12.04,10.69-24.52,15.12-37.16,2.22-6.33,4.2-12.73,6.17-19.13,1.89-6.41,3.71-12.9,4.61-19.42l.04.46c-.64-2.07-1.56-4.23-2.53-6.29-1-2.06-2.14-4.07-3.4-6-2.53-3.86-5.57-7.41-9.02-10.54l.15-.18c3.59,3,6.81,6.45,9.53,10.25,2.71,3.81,5.02,7.92,6.55,12.37v.03s0,.03,0,.03c-.76,6.71-2.44,13.27-4.19,19.77-1.78,6.49-3.79,12.93-5.95,19.31-4.36,12.75-9.15,25.37-15.12,37.46-2.99,6.05-6.86,11.71-11.71,16.43-4.84,4.73-10.61,8.45-16.8,11.12-12.46,5.35-26.13,6.92-39.55,7.25v-.23Z"/>
          <path class="cls-25" d="M146.18,9.47c-11.03,1.42-22.03,2.82-32.96,4.69-10.95,1.69-21.85,3.63-32.61,6.08-10.71,2.56-21.46,5.11-31.56,9.09-10.02,3.9-19.47,9.55-25.54,17.92-6.32,8.2-8.51,18.93-8.18,29.62.13,5.37.79,10.76,1.7,16.15.97,5.4,1.98,10.77,3.44,15.97,1.47,5.2,3.41,10.24,6.2,14.75,2.77,4.52,6.49,8.4,10.97,11.27,4.44,2.94,9.6,4.87,14.93,6.04,5.35,1.16,10.88,1.68,16.43,1.88v.34c-5.55.12-11.14-.13-16.63-1.11-5.47-.97-10.87-2.72-15.67-5.61-4.8-2.86-8.87-6.91-11.91-11.58-3.07-4.68-5.21-9.88-6.87-15.19-1.66-5.32-2.82-10.77-3.82-16.24-.98-5.47-1.71-11.01-1.9-16.58-.18-5.57.19-11.19,1.53-16.62,1.33-5.43,3.67-10.63,7.02-15.13,6.73-9.09,16.84-14.89,27.18-18.8,10.42-3.95,21.26-6.58,32.15-8.8,21.81-4.31,43.92-6.92,66.08-8.49l.02.34Z"/>
          <path class="cls-13" d="M285.6,143.23c-13.42-.32-27.09-1.89-39.55-7.25-6.19-2.68-11.97-6.39-16.8-11.12-4.85-4.72-8.72-10.38-11.71-16.42-5.97-12.1-10.76-24.72-15.12-37.47-2.16-6.38-4.17-12.81-5.95-19.31-1.74-6.5-3.42-13.05-4.19-19.77v-.03s0-.03,0-.03c1.52-4.45,3.84-8.56,6.54-12.37,2.72-3.81,5.93-7.26,9.53-10.25l.15.18c-3.45,3.13-6.49,6.68-9.02,10.54-1.27,1.93-2.4,3.94-3.4,6-.97,2.06-1.9,4.21-2.54,6.29l.04-.46c.9,6.53,2.72,13.02,4.6,19.42,1.97,6.4,3.95,12.8,6.17,19.13,4.42,12.65,9.41,25.12,15.11,37.16,2.85,5.9,6.54,11.38,11.16,15.96,4.63,4.55,10.07,8.31,16.05,11.07,5.97,2.81,12.42,4.55,18.95,5.94,6.54,1.36,13.24,2.14,19.95,2.56v.23Z"/>
          <path class="cls-54" d="M208.44,9.19c22.16,1.58,44.27,4.2,66.07,8.52,10.88,2.22,21.72,4.86,32.13,8.8,10.33,3.92,20.42,9.71,27.12,18.77,3.33,4.49,5.68,9.67,7,15.09,1.34,5.42,1.71,11.04,1.53,16.6-.18,5.57-.91,11.1-1.89,16.56-1,5.47-2.16,10.91-3.81,16.23-1.65,5.31-3.8,10.51-6.85,15.17-3.04,4.67-7.09,8.71-11.88,11.57-4.78,2.89-10.17,4.63-15.64,5.61-5.48.99-11.07,1.24-16.62,1.12v-.23c5.55-.05,11.1-.46,16.49-1.59,5.37-1.13,10.6-3,15.15-5.93,4.58-2.87,8.4-6.79,11.25-11.36,2.88-4.56,4.88-9.65,6.41-14.88,1.52-5.24,2.59-10.64,3.56-16.06.93-5.41,1.62-10.85,1.76-16.28.14-5.42-.27-10.84-1.57-16-1.3-5.16-3.54-10.04-6.72-14.26-6.27-8.59-15.92-14.29-26.03-18.19-10.2-3.97-20.97-6.55-31.74-9-10.8-2.37-21.73-4.23-32.7-5.83-10.96-1.7-21.97-3.14-33.03-4.21v-.23Z"/>
          <path class="cls-21" d="M280.42,25.19c27.3,5.84,55.39,19.48,56.32,43.4.92,23.93-7.61,53.22-21.24,63.34-13.63,10.12-65.57,4-65.57,0s47.73-.89,48.95-31.71c1.21-30.82-29.61-33.55-31.58-39.09-1.97-5.54,9.74-36.66,13.14-35.93Z"/>
          <path class="cls-22" d="M74.16,25.19c-27.3,5.84-55.39,19.48-56.31,43.4-.93,23.93,7.6,53.22,21.24,63.34,13.64,10.12,65.57,4,65.57,0s-47.73-.89-48.95-31.71c-1.21-30.82,29.61-33.55,31.58-39.09,1.97-5.54-9.74-36.66-13.13-35.93Z"/>
          <circle class="cls-10" cx="112.31" cy="44.72" r="2.88"/>
          <path class="cls-6" d="M144.31,26.14c-.56,0-1.08.11-1.56.29-.82-1.14-2.48-1.92-4.42-1.92-2.75,0-4.98,1.57-4.98,3.5,0,.31.07.6.18.88-1.19.17-2.06.67-2.06,1.28,0,.74,1.31,1.34,2.92,1.34.72,0,1.37-.12,1.88-.32.63.2,1.33.32,2.06.32,1.29,0,2.46-.36,3.35-.93.64.56,1.57.93,2.63.93,1.93,0,3.5-1.2,3.5-2.69s-1.57-2.69-3.5-2.69Z"/>
          <path class="cls-27" d="M246.36,53.28c-.39,0-.76.06-1.11.14-.06-1.43-1.36-2.58-2.98-2.58-1.21,0-2.25.65-2.71,1.57-.84,0-1.65.1-2.37.28,0-.09.03-.18.03-.28,0-2.43-2.8-4.4-6.26-4.4-2.43,0-4.52.99-5.55,2.41-.59-.23-1.25-.37-1.96-.37-2.43,0-4.4,1.51-4.4,3.38s1.97,3.38,4.4,3.38c1.32,0,2.5-.46,3.3-1.16.82.53,1.84.91,2.98,1.07.35,1.02,1.64,1.78,3.2,1.78.84,0,1.6-.23,2.18-.59,1.1.67,2.71,1.1,4.5,1.1,2.09,0,3.93-.58,5.02-1.46.51.22,1.1.36,1.74.36,1.82,0,3.3-1.04,3.3-2.32s-1.48-2.32-3.3-2.32Z"/>
          <path class="cls-28" d="M135.81,43.93c-.47,0-.92.07-1.34.18,0-.06.01-.12.01-.18,0-3.18-3.17-5.75-7.08-5.75-2.52,0-4.72,1.07-5.98,2.67-.89-1.58-2.77-2.67-4.94-2.67-1.96,0-3.68.89-4.66,2.23-1.32-.8-3.18-1.31-5.24-1.31-4.02,0-7.27,1.9-7.27,4.25,0,.57.19,1.11.54,1.6-2.72.11-4.87,1.34-4.87,2.85s2.35,2.88,5.25,2.88c1.67,0,3.15-.44,4.11-1.11,1.47,1.01,4.24,1.69,7.43,1.69,2.98,0,5.6-.6,7.12-1.5,1.57.91,4.09,1.5,6.95,1.5,3.59,0,6.66-.93,7.97-2.25.58.26,1.27.42,2,.42,2.12,0,3.83-1.23,3.83-2.75s-1.72-2.75-3.83-2.75Z"/>
          <g class="cls-23">
            <path class="cls-29" d="M138.72,76.37l-3.92-.08c-2.62-.05-5.23-.04-7.84-.02-2.61.04-5.23.07-7.84.18-2.61.09-5.23.2-7.84.41,2.62.2,5.23.28,7.85.34,2.62.07,5.23.06,7.85.05,2.62-.04,5.23-.08,7.84-.2l3.92-.19c1.31-.1,2.61-.17,3.92-.3-1.31-.09-2.62-.12-3.93-.18Z"/>
            <path class="cls-30" d="M97.92,76.84c-3.49-.4-6.98-.52-10.47-.58-3.49-.03-6.98,0-10.48.29,3.48.48,6.97.62,10.46.69,3.49.03,6.99-.03,10.48-.4Z"/>
            <path class="cls-32" d="M124.85,80.77l-12.33.05-12.33.11c-2.05.02-4.11.03-6.16.02-2.06.02-4.11-.02-6.17-.07,4.09.51,8.21.67,12.32.8,4.12.12,8.23.11,12.35.12,4.12-.07,8.23-.12,12.34-.27,4.11-.15,8.22-.33,12.33-.64-2.06-.05-4.12-.05-6.17-.09h-6.17Z"/>
            <path class="cls-43" d="M115.86,78.98h-11.19s-5.6.03-5.6.03c-1.87.04-3.73.05-5.6.11,3.72.3,7.46.47,11.19.6,3.73.15,7.46.2,11.2.24,3.73,0,7.47,0,11.2-.14,3.73-.13,7.47-.3,11.18-.7l-11.19-.05-11.19-.09Z"/>
            <path class="cls-44" d="M97,85.69c3.46-.02,6.94-.23,10.34-.96-1.74-.15-3.46-.21-5.19-.25-1.72-.05-3.44-.05-5.16-.06-3.44.02-6.87.04-10.34.31,1.7.38,3.42.59,5.15.74,1.73.15,3.46.21,5.19.22Z"/>
            <path class="cls-45" d="M105.13,87.26c-2.31.01-4.62.08-6.95.16,4.58.82,9.24,1.05,13.88,1.07,4.64-.02,9.29-.28,13.88-1.07-4.65-.21-9.26-.19-13.88-.2l-6.92.05Z"/>
            <path class="cls-46" d="M105.31,88.97l-9.31.05c-3.11,0-6.21.07-9.34.1,3.08.53,6.19.85,9.3,1.04,3.12.2,6.24.27,9.36.27,6.24-.04,12.48-.38,18.66-1.31-6.25-.22-12.45-.16-18.66-.15Z"/>
            <path class="cls-31" d="M95.95,95.88c7.05,0,14.13-.38,21.08-1.61-7.06.07-14.06.18-21.07.14-3.51,0-7.01-.04-10.52-.07l-10.56-.08c3.48.59,6.99.97,10.5,1.22,3.52.26,7.04.37,10.57.39Z"/>
            <path class="cls-34" d="M114.65,97.52l-4.62.03c-1.55.02-3.1.05-4.72.17,1.46.68,3.01,1.07,4.58,1.34,1.57.27,3.16.41,4.75.41,1.59,0,3.19-.13,4.76-.4,1.57-.27,3.12-.68,4.57-1.36-1.62-.13-3.17-.14-4.72-.16l-4.61-.03Z"/>
            <path class="cls-33" d="M95.94,101.97l-7.5.13-7.54.2c2.43.73,4.96,1.08,7.48,1.32,2.52.24,5.05.31,7.58.3,2.53-.04,5.05-.16,7.56-.42,2.51-.25,5.01-.61,7.49-1.19-2.54-.23-5.05-.29-7.56-.33-2.51-.05-5.01-.02-7.51,0Z"/>
            <path class="cls-35" d="M78.36,88.38c.85-.1,1.71-.25,2.54-.53-1.73-.23-3.41-.28-5.1-.3-1.69,0-3.38.03-5.11.3,1.67.51,3.39.66,5.1.68.86,0,1.72-.04,2.57-.15Z"/>
            <path class="cls-36" d="M105.25,73.92c1.97-.01,3.94-.05,5.9-.16,1.96-.11,3.93-.25,5.88-.49-1.97-.06-3.93-.06-5.9-.07h-5.89s-5.89.02-5.89.02l-5.9.05c1.95.27,3.92.41,5.88.51,1.97.11,3.93.14,5.9.15Z"/>
          </g>
          <g class="cls-23">
            <path class="cls-50" d="M282.11,80.85l-4.95-.09c-3.3-.06-6.59-.04-9.89-.03-3.29.04-6.59.08-9.88.2-3.29.11-6.59.23-9.88.46,3.29.22,6.59.31,9.89.38,3.3.08,6.59.07,9.89.06,3.29-.04,6.59-.09,9.89-.23l4.94-.21c1.64-.11,3.29-.19,4.94-.34-1.65-.1-3.3-.13-4.95-.21Z"/>
            <path class="cls-38" d="M239.01,81.38c-4.4-.46-8.8-.59-13.19-.65-4.4-.03-8.8,0-13.21.33,4.39.55,8.79.71,13.19.78,4.4.03,8.81-.03,13.21-.45Z"/>
            <path class="cls-51" d="M279.63,84.8l-15.55.05-15.54.12c-2.59.03-5.18.04-7.77.02-2.59.02-5.18-.02-7.78-.08,5.15.58,10.35.76,15.54.91,5.19.14,10.38.12,15.57.13,5.19-.08,10.37-.14,15.56-.31,5.18-.17,10.37-.38,15.54-.73-2.59-.06-5.19-.06-7.78-.1l-7.78-.02Z"/>
            <path class="cls-49" d="M269.87,83.82h-14.11s-7.06.03-7.06.03c-2.35.05-4.71.05-7.06.12,4.7.34,9.4.53,14.1.69,4.7.17,9.41.23,14.12.27,4.71,0,9.42,0,14.12-.16,4.7-.14,9.41-.34,14.1-.79l-14.11-.06-14.1-.1Z"/>
            <path class="cls-37" d="M239.01,90.7c4.36-.02,8.75-.26,13.04-1.09-2.19-.17-4.37-.23-6.54-.28-2.17-.06-4.33-.06-6.5-.07-4.33.02-8.66.04-13.04.35,2.15.43,4.32.67,6.49.84,2.18.17,4.36.24,6.54.25Z"/>
            <path class="cls-52" d="M256.35,93.2c-2.91.02-5.83.09-8.76.18,5.78.93,11.64,1.19,17.49,1.21,5.85-.03,11.71-.32,17.49-1.21-5.86-.24-11.67-.21-17.49-.23l-8.73.05Z"/>
            <path class="cls-42" d="M246.33,99.27c8.89,0,17.81-.44,26.57-1.82-8.9.08-17.72.21-26.56.16-4.42,0-8.84-.05-13.27-.07l-13.31-.09c4.38.67,8.81,1.1,13.24,1.38,4.43.29,8.88.42,13.33.44Z"/>
            <path class="cls-40" d="M262.51,103.7l-5.82.03c-1.95.02-3.91.06-5.95.19,1.83.77,3.8,1.21,5.77,1.52,1.97.31,3.98.47,5.99.47,2.01,0,4.02-.14,6-.45,1.98-.31,3.93-.77,5.76-1.54-2.04-.14-4-.16-5.95-.18l-5.81-.04Z"/>
            <path class="cls-39" d="M262.49,109.86l-9.45.15-9.51.23c3.07.83,6.26,1.22,9.43,1.49,3.18.28,6.37.35,9.55.34,3.19-.05,6.37-.18,9.53-.48,3.17-.29,6.32-.69,9.44-1.35-3.2-.26-6.37-.33-9.53-.37-3.16-.05-6.32-.02-9.47,0Z"/>
            <path class="cls-41" d="M224.36,94.47c1.08-.11,2.15-.28,3.2-.6-2.18-.27-4.3-.32-6.43-.33-2.13,0-4.26.03-6.44.33,2.1.57,4.27.75,6.44.77,1.08,0,2.16-.05,3.24-.17Z"/>
            <path class="cls-48" d="M256.5,78.07c2.48-.01,4.96-.06,7.44-.18,2.48-.12,4.95-.28,7.41-.56-2.48-.07-4.96-.07-7.43-.08h-7.42s-7.42.02-7.42.02l-7.43.06c2.46.3,4.94.46,7.41.58,2.48.13,4.96.16,7.44.16Z"/>
            <path class="cls-47" d="M241.65,116.12l-5.82.03c-1.95.02-3.91.06-5.95.19,1.83.77,3.8,1.21,5.77,1.52,1.97.31,3.98.47,5.99.47,2.01,0,4.02-.15,6-.45,1.98-.31,3.93-.77,5.76-1.54-2.04-.14-4-.16-5.95-.18l-5.81-.04Z"/>
          </g>
        </g>
      </g>
    </g>
  </g>
</svg>